<svg width="749" height="487" viewBox="0 0 749 487" fill="none" xmlns="http://www.w3.org/2000/svg">
<path fill-rule="evenodd" clip-rule="evenodd" d="M384.215 57.522C384.215 57.7544 384.15 57.9817 384.03 58.1749C383.909 58.3682 383.738 58.5189 383.537 58.6078C383.337 58.6968 383.116 58.7201 382.903 58.6747C382.69 58.6294 382.495 58.5175 382.341 58.3531C382.187 58.1887 382.083 57.9793 382.041 57.7514C381.998 57.5234 382.02 57.2871 382.103 57.0723C382.186 56.8576 382.327 56.6741 382.507 56.5449C382.688 56.4158 382.9 56.3469 383.117 56.3469C383.408 56.3469 383.687 56.4707 383.893 56.6911C384.099 56.9115 384.215 57.2104 384.215 57.522Z" fill="#68B7E7"/>
<path fill-rule="evenodd" clip-rule="evenodd" d="M362.911 183.936C362.911 184.168 362.847 184.396 362.726 184.589C362.606 184.782 362.434 184.933 362.234 185.022C362.033 185.111 361.812 185.134 361.599 185.089C361.386 185.043 361.191 184.931 361.037 184.767C360.884 184.603 360.779 184.393 360.737 184.165C360.695 183.937 360.716 183.701 360.799 183.486C360.882 183.271 361.023 183.088 361.204 182.959C361.384 182.83 361.596 182.761 361.814 182.761C361.958 182.761 362.1 182.791 362.234 182.85C362.367 182.909 362.488 182.996 362.59 183.105C362.692 183.214 362.772 183.344 362.828 183.486C362.883 183.629 362.911 183.782 362.911 183.936Z" fill="#68B7E7"/>
<path fill-rule="evenodd" clip-rule="evenodd" d="M520.228 246.725C520.227 246.958 520.163 247.185 520.042 247.378C519.922 247.571 519.75 247.722 519.55 247.811C519.349 247.899 519.129 247.923 518.916 247.877C518.703 247.832 518.507 247.72 518.354 247.556C518.2 247.391 518.096 247.182 518.053 246.954C518.011 246.726 518.033 246.49 518.116 246.275C518.199 246.06 518.34 245.877 518.52 245.748C518.701 245.619 518.913 245.55 519.13 245.55C519.274 245.55 519.417 245.58 519.55 245.639C519.683 245.698 519.804 245.785 519.906 245.894C520.008 246.003 520.089 246.133 520.144 246.275C520.199 246.418 520.228 246.571 520.228 246.725Z" fill="#68B7E7"/>
<path fill-rule="evenodd" clip-rule="evenodd" d="M551.287 390.748C551.287 390.98 551.223 391.208 551.102 391.401C550.982 391.594 550.81 391.745 550.61 391.834C550.409 391.923 550.188 391.946 549.975 391.901C549.762 391.855 549.567 391.743 549.413 391.579C549.26 391.415 549.155 391.205 549.113 390.977C549.071 390.749 549.092 390.513 549.175 390.298C549.258 390.083 549.399 389.9 549.58 389.771C549.76 389.642 549.973 389.573 550.19 389.573C550.481 389.573 550.76 389.697 550.966 389.917C551.171 390.137 551.287 390.436 551.287 390.748Z" fill="#68B7E7"/>
<path fill-rule="evenodd" clip-rule="evenodd" d="M451.124 198.608C451.124 198.84 451.059 199.067 450.939 199.261C450.818 199.454 450.647 199.604 450.446 199.693C450.246 199.782 450.025 199.806 449.812 199.76C449.599 199.715 449.404 199.603 449.25 199.439C449.097 199.274 448.992 199.065 448.95 198.837C448.907 198.609 448.929 198.373 449.012 198.158C449.095 197.943 449.236 197.76 449.416 197.631C449.597 197.502 449.809 197.433 450.026 197.433C450.17 197.433 450.313 197.463 450.446 197.522C450.58 197.581 450.7 197.668 450.802 197.777C450.904 197.886 450.985 198.015 451.04 198.158C451.095 198.301 451.124 198.453 451.124 198.608Z" fill="#406FBB"/>
<path fill-rule="evenodd" clip-rule="evenodd" d="M399.228 171.819C399.228 172.051 399.164 172.278 399.043 172.472C398.922 172.665 398.751 172.815 398.55 172.904C398.35 172.993 398.129 173.017 397.916 172.971C397.703 172.926 397.507 172.814 397.354 172.65C397.2 172.485 397.096 172.276 397.053 172.048C397.011 171.82 397.033 171.584 397.116 171.369C397.199 171.154 397.34 170.971 397.52 170.842C397.701 170.713 397.913 170.644 398.13 170.644C398.421 170.644 398.7 170.767 398.906 170.988C399.112 171.208 399.228 171.507 399.228 171.819Z" fill="#406FBB"/>
<path fill-rule="evenodd" clip-rule="evenodd" d="M334.767 118.128C334.767 118.36 334.702 118.588 334.582 118.781C334.461 118.974 334.29 119.125 334.089 119.214C333.889 119.303 333.668 119.326 333.455 119.281C333.242 119.235 333.046 119.123 332.893 118.959C332.739 118.795 332.635 118.585 332.592 118.357C332.55 118.129 332.572 117.893 332.655 117.678C332.738 117.464 332.878 117.28 333.059 117.151C333.239 117.022 333.452 116.953 333.669 116.953C333.813 116.953 333.956 116.983 334.089 117.042C334.222 117.101 334.343 117.188 334.445 117.297C334.547 117.406 334.628 117.536 334.683 117.678C334.738 117.821 334.767 117.974 334.767 118.128Z" fill="#365CBB"/>
<path d="M267.293 31.4126C267.899 31.4126 268.391 30.8865 268.391 30.2375C268.391 29.5886 267.899 29.0625 267.293 29.0625C266.687 29.0625 266.195 29.5886 266.195 30.2375C266.195 30.8865 266.687 31.4126 267.293 31.4126Z" fill="#365CBB"/>
<path fill-rule="evenodd" clip-rule="evenodd" d="M467.891 197.436C467.891 197.669 467.827 197.896 467.706 198.089C467.586 198.282 467.414 198.433 467.214 198.522C467.013 198.61 466.792 198.634 466.58 198.588C466.367 198.543 466.171 198.431 466.018 198.267C465.864 198.102 465.76 197.893 465.717 197.665C465.675 197.437 465.697 197.201 465.78 196.986C465.863 196.771 466.004 196.588 466.184 196.459C466.365 196.33 466.577 196.261 466.794 196.261C466.938 196.261 467.081 196.291 467.214 196.35C467.347 196.409 467.468 196.496 467.57 196.605C467.672 196.714 467.753 196.844 467.808 196.986C467.863 197.129 467.891 197.282 467.891 197.436Z" fill="#365CBB"/>
<path fill-rule="evenodd" clip-rule="evenodd" d="M256.05 470.783C256.05 471.016 255.986 471.243 255.865 471.436C255.744 471.63 255.573 471.78 255.372 471.869C255.172 471.958 254.951 471.981 254.738 471.936C254.525 471.891 254.329 471.779 254.176 471.614C254.022 471.45 253.918 471.241 253.876 471.013C253.833 470.785 253.855 470.549 253.938 470.334C254.021 470.119 254.162 469.935 254.342 469.806C254.523 469.677 254.735 469.608 254.952 469.608C255.096 469.608 255.239 469.639 255.372 469.698C255.506 469.757 255.626 469.843 255.728 469.953C255.83 470.062 255.911 470.191 255.966 470.334C256.022 470.476 256.05 470.629 256.05 470.783Z" fill="#90FFFF"/>
<path fill-rule="evenodd" clip-rule="evenodd" d="M516.303 5.96315C516.303 6.27483 516.187 6.57375 515.982 6.79416C515.776 7.01457 515.496 7.13842 515.205 7.13848C514.914 7.13843 514.635 7.01459 514.429 6.79418C514.223 6.57378 514.107 6.27486 514.107 5.96315C514.107 5.65148 514.223 5.35259 514.429 5.13223C514.635 4.91186 514.914 4.78807 515.205 4.78809C515.496 4.78809 515.776 4.91189 515.981 5.13226C516.187 5.35262 516.303 5.65151 516.303 5.96315Z" fill="#406FBB"/>
<path fill-rule="evenodd" clip-rule="evenodd" d="M506.842 161.787C506.842 162.019 506.777 162.247 506.657 162.44C506.536 162.633 506.365 162.784 506.164 162.873C505.964 162.961 505.743 162.985 505.53 162.939C505.317 162.894 505.121 162.782 504.968 162.618C504.814 162.453 504.71 162.244 504.668 162.016C504.625 161.788 504.647 161.552 504.73 161.337C504.813 161.122 504.954 160.939 505.134 160.81C505.315 160.681 505.527 160.612 505.744 160.612C505.888 160.612 506.031 160.642 506.164 160.701C506.297 160.76 506.418 160.847 506.52 160.956C506.622 161.065 506.703 161.194 506.758 161.337C506.813 161.48 506.842 161.633 506.842 161.787Z" fill="#406FBB"/>
<path fill-rule="evenodd" clip-rule="evenodd" d="M226.527 105.448C226.527 105.68 226.463 105.907 226.343 106.101C226.222 106.294 226.05 106.445 225.85 106.534C225.649 106.623 225.429 106.646 225.216 106.601C225.003 106.555 224.807 106.443 224.654 106.279C224.5 106.115 224.395 105.905 224.353 105.677C224.311 105.449 224.333 105.213 224.416 104.998C224.499 104.783 224.639 104.6 224.82 104.471C225 104.342 225.213 104.273 225.43 104.273C225.721 104.273 226 104.397 226.206 104.617C226.412 104.837 226.527 105.136 226.527 105.448Z" fill="#406FBB"/>
<path fill-rule="evenodd" clip-rule="evenodd" d="M284.49 166.928C284.49 167.161 284.426 167.388 284.305 167.581C284.184 167.774 284.013 167.925 283.812 168.014C283.612 168.103 283.391 168.126 283.178 168.081C282.965 168.035 282.77 167.923 282.616 167.759C282.463 167.595 282.358 167.385 282.316 167.157C282.274 166.929 282.295 166.693 282.378 166.478C282.462 166.264 282.602 166.08 282.783 165.951C282.963 165.822 283.175 165.753 283.393 165.753C283.537 165.753 283.679 165.783 283.813 165.843C283.946 165.902 284.067 165.988 284.169 166.097C284.271 166.206 284.351 166.336 284.407 166.479C284.462 166.621 284.49 166.774 284.49 166.928Z" fill="#406FBB"/>
<path fill-rule="evenodd" clip-rule="evenodd" d="M385.473 485.357C385.473 485.589 385.408 485.817 385.288 486.01C385.167 486.203 384.996 486.354 384.795 486.443C384.594 486.531 384.374 486.555 384.161 486.509C383.948 486.464 383.752 486.352 383.599 486.188C383.445 486.023 383.341 485.814 383.298 485.586C383.256 485.358 383.278 485.122 383.361 484.907C383.444 484.693 383.585 484.509 383.765 484.38C383.946 484.251 384.158 484.182 384.375 484.182C384.666 484.182 384.945 484.306 385.151 484.526C385.357 484.746 385.473 485.045 385.473 485.357Z" fill="#406FBB"/>
<path fill-rule="evenodd" clip-rule="evenodd" d="M298.868 21.971C298.868 22.2034 298.804 22.4306 298.683 22.6239C298.563 22.8172 298.391 22.9678 298.191 23.0568C297.99 23.1458 297.77 23.1691 297.557 23.1237C297.344 23.0784 297.148 22.9665 296.994 22.8022C296.841 22.6378 296.736 22.4284 296.694 22.2005C296.652 21.9725 296.673 21.7362 296.756 21.5215C296.839 21.3067 296.98 21.1232 297.161 20.994C297.341 20.8649 297.553 20.7959 297.771 20.7959C298.062 20.7959 298.341 20.9197 298.547 21.14C298.753 21.3604 298.868 21.6593 298.868 21.971Z" fill="#406FBB"/>
<path fill-rule="evenodd" clip-rule="evenodd" d="M512.158 321.545C512.158 321.777 512.094 322.005 511.973 322.198C511.853 322.391 511.681 322.542 511.481 322.631C511.28 322.72 511.059 322.743 510.846 322.697C510.634 322.652 510.438 322.54 510.284 322.376C510.131 322.212 510.026 322.002 509.984 321.774C509.942 321.546 509.963 321.31 510.046 321.095C510.13 320.881 510.27 320.697 510.451 320.568C510.631 320.439 510.843 320.37 511.061 320.37C511.352 320.37 511.631 320.494 511.837 320.714C512.043 320.934 512.158 321.233 512.158 321.545Z" fill="#406FBB"/>
<path fill-rule="evenodd" clip-rule="evenodd" d="M162.843 159.507C162.843 159.739 162.778 159.966 162.658 160.159C162.537 160.353 162.366 160.503 162.165 160.592C161.965 160.681 161.744 160.704 161.531 160.659C161.318 160.614 161.122 160.502 160.969 160.338C160.815 160.173 160.711 159.964 160.669 159.736C160.626 159.508 160.648 159.272 160.731 159.057C160.814 158.842 160.955 158.659 161.135 158.53C161.316 158.4 161.528 158.332 161.745 158.332C162.036 158.332 162.315 158.455 162.521 158.676C162.727 158.896 162.843 159.195 162.843 159.507Z" fill="#406FBB"/>
<path fill-rule="evenodd" clip-rule="evenodd" d="M421.604 269.662C421.604 269.894 421.539 270.121 421.419 270.314C421.298 270.508 421.127 270.658 420.926 270.747C420.726 270.836 420.505 270.86 420.292 270.814C420.079 270.769 419.883 270.657 419.73 270.493C419.576 270.328 419.472 270.119 419.429 269.891C419.387 269.663 419.409 269.427 419.492 269.212C419.575 268.997 419.716 268.814 419.896 268.684C420.077 268.555 420.289 268.486 420.506 268.486C420.797 268.487 421.076 268.61 421.282 268.831C421.488 269.051 421.604 269.35 421.604 269.662Z" fill="#406FBB"/>
<path fill-rule="evenodd" clip-rule="evenodd" d="M335.865 75.2724C335.866 75.5049 335.801 75.7321 335.68 75.9254C335.56 76.1186 335.388 76.2693 335.188 76.3582C334.987 76.4472 334.767 76.4705 334.554 76.4251C334.341 76.3798 334.145 76.2679 333.991 76.1035C333.838 75.9392 333.733 75.7298 333.691 75.5018C333.649 75.2738 333.67 75.0375 333.754 74.8228C333.837 74.6081 333.977 74.4245 334.158 74.2954C334.338 74.1663 334.551 74.0974 334.768 74.0974C335.059 74.0975 335.338 74.2213 335.544 74.4416C335.75 74.662 335.865 74.9608 335.865 75.2724Z" fill="#406FBB"/>
<path fill-rule="evenodd" clip-rule="evenodd" d="M592.47 355.588C592.47 355.821 592.405 356.048 592.285 356.241C592.164 356.434 591.993 356.585 591.792 356.674C591.592 356.763 591.371 356.786 591.158 356.741C590.945 356.696 590.749 356.584 590.596 356.419C590.442 356.255 590.338 356.046 590.296 355.818C590.253 355.59 590.275 355.353 590.358 355.138C590.441 354.924 590.582 354.74 590.762 354.611C590.943 354.482 591.155 354.413 591.372 354.413C591.663 354.413 591.942 354.537 592.148 354.757C592.354 354.978 592.47 355.277 592.47 355.588Z" fill="#406FBB"/>
<path fill-rule="evenodd" clip-rule="evenodd" d="M529.043 79.9876C529.043 80.22 528.979 80.4472 528.858 80.6405C528.737 80.8337 528.566 80.9843 528.365 81.0733C528.165 81.1622 527.944 81.1854 527.731 81.1401C527.518 81.0947 527.323 80.9828 527.169 80.8185C527.016 80.6541 526.911 80.4447 526.869 80.2168C526.826 79.9888 526.848 79.7525 526.931 79.5378C527.014 79.323 527.155 79.1395 527.335 79.0104C527.516 78.8812 527.728 78.8123 527.945 78.8123C528.089 78.8123 528.232 78.8426 528.365 78.9017C528.499 78.9608 528.62 79.0474 528.722 79.1565C528.824 79.2656 528.904 79.3952 528.96 79.5378C529.015 79.6804 529.043 79.8332 529.043 79.9876Z" fill="#68B7E7"/>
<path fill-rule="evenodd" clip-rule="evenodd" d="M582.862 89.7517C582.862 89.9841 582.797 90.2113 582.677 90.4045C582.556 90.5978 582.384 90.7484 582.184 90.8373C581.983 90.9262 581.763 90.9495 581.55 90.9041C581.337 90.8588 581.141 90.7469 580.988 90.5825C580.834 90.4182 580.729 90.2088 580.687 89.9809C580.645 89.7529 580.666 89.5166 580.75 89.3019C580.833 89.0872 580.973 88.9037 581.154 88.7745C581.334 88.6454 581.547 88.5764 581.764 88.5764C581.908 88.5764 582.051 88.6068 582.184 88.6659C582.317 88.7249 582.438 88.8115 582.54 88.9206C582.642 89.0298 582.723 89.1593 582.778 89.3019C582.833 89.4445 582.862 89.5974 582.862 89.7517Z" fill="#406FBB"/>
<path fill-rule="evenodd" clip-rule="evenodd" d="M456.494 394.362C456.494 394.595 456.429 394.822 456.309 395.015C456.188 395.208 456.017 395.359 455.816 395.448C455.616 395.537 455.395 395.56 455.182 395.515C454.969 395.469 454.774 395.358 454.62 395.193C454.467 395.029 454.362 394.82 454.32 394.592C454.278 394.364 454.299 394.127 454.382 393.913C454.465 393.698 454.606 393.514 454.787 393.385C454.967 393.256 455.179 393.187 455.396 393.187C455.54 393.187 455.683 393.218 455.816 393.277C455.949 393.336 456.07 393.422 456.172 393.531C456.274 393.64 456.355 393.77 456.41 393.913C456.465 394.055 456.494 394.208 456.494 394.362Z" fill="#406FBB"/>
<path fill-rule="evenodd" clip-rule="evenodd" d="M250.91 124.901C250.91 125.133 250.846 125.361 250.725 125.554C250.605 125.747 250.433 125.898 250.233 125.987C250.032 126.076 249.811 126.099 249.598 126.054C249.385 126.008 249.19 125.896 249.036 125.732C248.883 125.568 248.778 125.358 248.736 125.13C248.694 124.902 248.715 124.666 248.798 124.451C248.882 124.237 249.022 124.053 249.203 123.924C249.383 123.795 249.595 123.726 249.813 123.726C250.104 123.726 250.383 123.85 250.589 124.07C250.794 124.29 250.91 124.589 250.91 124.901Z" fill="#90FFFF"/>
<path d="M352.298 140.259C352.904 140.259 353.395 139.733 353.395 139.084C353.395 138.435 352.904 137.909 352.298 137.909C351.692 137.909 351.2 138.435 351.2 139.084C351.2 139.733 351.692 140.259 352.298 140.259Z" fill="#90FFFF"/>
<path fill-rule="evenodd" clip-rule="evenodd" d="M157.184 79.9517C157.184 80.1841 157.12 80.4112 156.999 80.6044C156.879 80.7976 156.707 80.9482 156.507 81.0371C156.306 81.126 156.085 81.1492 155.873 81.1038C155.66 81.0585 155.464 80.9465 155.311 80.7822C155.157 80.6179 155.053 80.4085 155.01 80.1806C154.968 79.9526 154.99 79.7164 155.073 79.5017C155.156 79.287 155.297 79.1035 155.477 78.9744C155.658 78.8453 155.87 78.7764 156.087 78.7764C156.231 78.7764 156.374 78.8068 156.507 78.8658C156.64 78.9249 156.761 79.0115 156.863 79.1206C156.965 79.2298 157.046 79.3593 157.101 79.5019C157.156 79.6445 157.184 79.7973 157.184 79.9517Z" fill="#90FFFF"/>
<path fill-rule="evenodd" clip-rule="evenodd" d="M419.203 309.748C419.203 309.98 419.139 310.207 419.018 310.4C418.898 310.594 418.726 310.744 418.525 310.833C418.325 310.922 418.104 310.945 417.891 310.9C417.678 310.855 417.483 310.743 417.329 310.578C417.176 310.414 417.071 310.205 417.029 309.977C416.987 309.749 417.008 309.513 417.091 309.298C417.174 309.083 417.315 308.9 417.496 308.771C417.676 308.641 417.888 308.573 418.105 308.573C418.397 308.573 418.676 308.696 418.882 308.917C419.087 309.137 419.203 309.436 419.203 309.748Z" fill="#B7FFFF"/>
<path fill-rule="evenodd" clip-rule="evenodd" d="M373.784 33.9009C373.784 34.1333 373.72 34.3605 373.599 34.5538C373.479 34.747 373.307 34.8976 373.107 34.9866C372.906 35.0755 372.685 35.0988 372.472 35.0534C372.26 35.0081 372.064 34.8962 371.91 34.7318C371.757 34.5675 371.652 34.3581 371.61 34.1301C371.568 33.9022 371.589 33.6659 371.672 33.4511C371.755 33.2364 371.896 33.0528 372.077 32.9237C372.257 32.7946 372.469 32.7256 372.686 32.7256C372.831 32.7256 372.973 32.756 373.107 32.815C373.24 32.8741 373.361 32.9607 373.463 33.0698C373.565 33.1789 373.646 33.3085 373.701 33.4511C373.756 33.5937 373.784 33.7466 373.784 33.9009Z" fill="#90FFFF"/>
<path fill-rule="evenodd" clip-rule="evenodd" d="M581.764 194.644C581.764 194.876 581.7 195.103 581.579 195.296C581.459 195.49 581.287 195.64 581.087 195.729C580.886 195.818 580.666 195.841 580.453 195.796C580.24 195.751 580.044 195.639 579.891 195.474C579.737 195.31 579.633 195.101 579.59 194.873C579.548 194.645 579.57 194.409 579.653 194.194C579.736 193.979 579.877 193.796 580.057 193.667C580.238 193.537 580.45 193.469 580.667 193.469C580.958 193.469 581.237 193.592 581.443 193.813C581.649 194.033 581.764 194.332 581.764 194.644Z" fill="#90FFFF"/>
<path fill-rule="evenodd" clip-rule="evenodd" d="M359 313.608C359 313.84 358.936 314.067 358.815 314.261C358.694 314.454 358.523 314.604 358.322 314.693C358.122 314.782 357.901 314.806 357.688 314.76C357.475 314.715 357.28 314.603 357.126 314.439C356.973 314.274 356.868 314.065 356.826 313.837C356.783 313.609 356.805 313.373 356.888 313.158C356.971 312.943 357.112 312.76 357.293 312.631C357.473 312.502 357.685 312.433 357.902 312.433C358.193 312.433 358.473 312.556 358.678 312.777C358.884 312.997 359 313.296 359 313.608Z" fill="#90FFFF"/>
<path fill-rule="evenodd" clip-rule="evenodd" d="M207.499 323.859C207.499 324.091 207.435 324.318 207.314 324.511C207.193 324.705 207.022 324.855 206.821 324.944C206.621 325.033 206.4 325.056 206.187 325.011C205.974 324.966 205.779 324.854 205.625 324.689C205.472 324.525 205.367 324.316 205.325 324.088C205.282 323.86 205.304 323.624 205.387 323.409C205.47 323.194 205.611 323.011 205.791 322.881C205.972 322.752 206.184 322.683 206.401 322.683C206.545 322.683 206.688 322.714 206.821 322.773C206.955 322.832 207.076 322.918 207.178 323.028C207.28 323.137 207.36 323.266 207.416 323.409C207.471 323.551 207.499 323.704 207.499 323.859Z" fill="#90FFFF"/>
<path fill-rule="evenodd" clip-rule="evenodd" d="M506.234 57.4827C506.234 57.7151 506.17 57.9423 506.049 58.1356C505.929 58.3289 505.757 58.4795 505.557 58.5685C505.356 58.6575 505.136 58.6808 504.923 58.6354C504.71 58.5901 504.514 58.4781 504.361 58.3138C504.207 58.1494 504.103 57.94 504.06 57.712C504.018 57.4841 504.039 57.2478 504.123 57.033C504.206 56.8183 504.346 56.6347 504.527 56.5056C504.707 56.3765 504.92 56.3076 505.137 56.3076C505.428 56.3077 505.707 56.4315 505.913 56.6518C506.119 56.8722 506.234 57.171 506.234 57.4827Z" fill="#90FFFF"/>
<path fill-rule="evenodd" clip-rule="evenodd" d="M468.989 124.901C468.989 125.133 468.925 125.361 468.804 125.554C468.684 125.747 468.512 125.898 468.312 125.987C468.111 126.076 467.89 126.099 467.678 126.054C467.465 126.008 467.269 125.897 467.116 125.732C466.962 125.568 466.857 125.358 466.815 125.131C466.773 124.903 466.794 124.666 466.877 124.452C466.96 124.237 467.101 124.053 467.282 123.924C467.462 123.795 467.674 123.726 467.891 123.726C468.036 123.726 468.178 123.756 468.312 123.815C468.445 123.874 468.566 123.961 468.668 124.07C468.77 124.179 468.851 124.309 468.906 124.451C468.961 124.594 468.989 124.747 468.989 124.901Z" fill="#90FFFF"/>
<path fill-rule="evenodd" clip-rule="evenodd" d="M355.578 125.276C355.578 125.508 355.514 125.735 355.393 125.929C355.273 126.122 355.101 126.273 354.901 126.361C354.7 126.45 354.479 126.474 354.266 126.428C354.053 126.383 353.858 126.271 353.704 126.107C353.551 125.942 353.446 125.733 353.404 125.505C353.362 125.277 353.383 125.041 353.466 124.826C353.549 124.611 353.69 124.428 353.871 124.299C354.051 124.169 354.263 124.101 354.481 124.101C354.625 124.101 354.767 124.131 354.901 124.19C355.034 124.249 355.155 124.336 355.257 124.445C355.359 124.554 355.439 124.683 355.495 124.826C355.55 124.969 355.578 125.121 355.578 125.276Z" fill="#90FFFF"/>
<path fill-rule="evenodd" clip-rule="evenodd" d="M390.878 330.259C390.878 330.491 390.814 330.719 390.693 330.912C390.572 331.105 390.401 331.256 390.2 331.345C390 331.434 389.779 331.457 389.566 331.412C389.353 331.366 389.158 331.254 389.004 331.09C388.851 330.926 388.746 330.716 388.704 330.488C388.661 330.26 388.683 330.024 388.766 329.809C388.849 329.595 388.99 329.411 389.171 329.282C389.351 329.153 389.563 329.084 389.78 329.084C390.072 329.084 390.351 329.208 390.557 329.428C390.762 329.649 390.878 329.947 390.878 330.259Z" fill="#90FFFF"/>
<path fill-rule="evenodd" clip-rule="evenodd" d="M360.112 228.787C360.112 229.02 360.048 229.247 359.927 229.44C359.807 229.634 359.635 229.784 359.435 229.873C359.234 229.962 359.014 229.985 358.801 229.94C358.588 229.895 358.392 229.783 358.239 229.619C358.085 229.454 357.98 229.245 357.938 229.017C357.896 228.789 357.917 228.553 358.001 228.338C358.084 228.123 358.224 227.94 358.405 227.81C358.585 227.681 358.797 227.612 359.014 227.612C359.306 227.612 359.585 227.736 359.791 227.956C359.997 228.177 360.112 228.476 360.112 228.787Z" fill="#68B7E7"/>
<path fill-rule="evenodd" clip-rule="evenodd" d="M291.009 180.678C291.009 180.91 290.945 181.138 290.824 181.331C290.703 181.524 290.532 181.675 290.331 181.764C290.131 181.853 289.91 181.876 289.697 181.831C289.484 181.785 289.288 181.674 289.135 181.509C288.981 181.345 288.877 181.135 288.835 180.907C288.792 180.679 288.814 180.443 288.897 180.228C288.98 180.014 289.121 179.83 289.301 179.701C289.482 179.572 289.694 179.503 289.911 179.503C290.202 179.503 290.482 179.627 290.687 179.847C290.893 180.068 291.009 180.366 291.009 180.678Z" fill="#406FBB"/>
<path fill-rule="evenodd" clip-rule="evenodd" d="M239.112 153.888C239.112 154.121 239.048 154.348 238.927 154.541C238.807 154.734 238.635 154.885 238.435 154.974C238.234 155.063 238.013 155.086 237.8 155.041C237.587 154.995 237.392 154.883 237.238 154.719C237.085 154.555 236.98 154.345 236.938 154.117C236.896 153.889 236.917 153.653 237.001 153.438C237.084 153.224 237.224 153.04 237.405 152.911C237.585 152.782 237.798 152.713 238.015 152.713C238.159 152.713 238.302 152.743 238.435 152.803C238.568 152.862 238.689 152.948 238.791 153.057C238.893 153.166 238.974 153.296 239.029 153.439C239.084 153.581 239.112 153.734 239.112 153.888Z" fill="#406FBB"/>
<path fill-rule="evenodd" clip-rule="evenodd" d="M174.653 100.193C174.653 100.426 174.589 100.653 174.469 100.846C174.348 101.04 174.176 101.19 173.976 101.279C173.775 101.368 173.555 101.392 173.342 101.346C173.129 101.301 172.933 101.189 172.78 101.025C172.626 100.86 172.522 100.651 172.479 100.423C172.437 100.195 172.458 99.9587 172.542 99.744C172.625 99.5292 172.765 99.3456 172.946 99.2164C173.126 99.0873 173.338 99.0183 173.556 99.0183C173.847 99.0183 174.126 99.1421 174.332 99.3625C174.538 99.5829 174.653 99.8817 174.653 100.193Z" fill="#365CBB"/>
<path fill-rule="evenodd" clip-rule="evenodd" d="M108.277 12.303C108.277 12.4573 108.249 12.6101 108.194 12.7527C108.139 12.8953 108.058 13.0249 107.956 13.134C107.854 13.2432 107.733 13.3297 107.6 13.3888C107.466 13.4479 107.324 13.4783 107.18 13.4783C107.035 13.4783 106.893 13.4479 106.76 13.3888C106.626 13.3297 106.505 13.2432 106.403 13.134C106.302 13.0249 106.221 12.8953 106.166 12.7527C106.11 12.6101 106.082 12.4573 106.082 12.303C106.082 11.9913 106.198 11.6925 106.403 11.4721C106.609 11.2517 106.889 11.1279 107.18 11.1279C107.471 11.1279 107.75 11.2517 107.956 11.4721C108.162 11.6925 108.277 11.9913 108.277 12.303Z" fill="#365CBB"/>
<path fill-rule="evenodd" clip-rule="evenodd" d="M126.758 277.347C126.758 277.579 126.694 277.806 126.573 277.999C126.452 278.193 126.281 278.343 126.08 278.432C125.88 278.521 125.659 278.545 125.446 278.499C125.233 278.454 125.038 278.342 124.884 278.178C124.731 278.013 124.626 277.804 124.584 277.576C124.541 277.348 124.563 277.112 124.646 276.897C124.729 276.682 124.87 276.499 125.05 276.37C125.231 276.24 125.443 276.172 125.66 276.172C125.951 276.172 126.23 276.295 126.436 276.516C126.642 276.736 126.758 277.035 126.758 277.347Z" fill="#365CBB"/>
<path fill-rule="evenodd" clip-rule="evenodd" d="M307.776 179.502C307.776 179.735 307.712 179.962 307.591 180.155C307.471 180.349 307.299 180.499 307.099 180.588C306.898 180.677 306.678 180.7 306.465 180.655C306.252 180.61 306.056 180.498 305.903 180.333C305.749 180.169 305.645 179.96 305.602 179.732C305.56 179.504 305.582 179.267 305.665 179.053C305.748 178.838 305.888 178.654 306.069 178.525C306.249 178.396 306.462 178.327 306.679 178.327C306.823 178.327 306.966 178.358 307.099 178.417C307.232 178.476 307.353 178.562 307.455 178.671C307.557 178.781 307.638 178.91 307.693 179.053C307.748 179.195 307.776 179.348 307.776 179.502Z" fill="#365CBB"/>
<path fill-rule="evenodd" clip-rule="evenodd" d="M66.4122 87.5176C66.4123 87.75 66.3479 87.9773 66.2273 88.1705C66.1067 88.3638 65.9352 88.5145 65.7346 88.6034C65.5341 88.6924 65.3133 88.7157 65.1004 88.6703C64.8874 88.625 64.6918 88.5131 64.5383 88.3487C64.3848 88.1843 64.2802 87.9749 64.2379 87.747C64.1955 87.519 64.2173 87.2827 64.3004 87.0679C64.3835 86.8532 64.5242 86.6697 64.7047 86.5405C64.8853 86.4114 65.0975 86.3425 65.3146 86.3425C65.6057 86.3426 65.8849 86.4664 66.0907 86.6868C66.2965 86.9071 66.4122 87.206 66.4122 87.5176Z" fill="#406FBB"/>
<path fill-rule="evenodd" clip-rule="evenodd" d="M124.376 148.998C124.376 149.23 124.311 149.457 124.191 149.651C124.07 149.844 123.899 149.995 123.698 150.083C123.498 150.172 123.277 150.196 123.064 150.15C122.851 150.105 122.656 149.993 122.502 149.829C122.349 149.664 122.244 149.455 122.202 149.227C122.159 148.999 122.181 148.763 122.264 148.548C122.347 148.333 122.488 148.15 122.668 148.021C122.849 147.892 123.061 147.823 123.278 147.823C123.569 147.823 123.848 147.947 124.054 148.167C124.26 148.387 124.376 148.686 124.376 148.998Z" fill="#406FBB"/>
<path fill-rule="evenodd" clip-rule="evenodd" d="M138.753 4.0408C138.753 4.35245 138.637 4.65133 138.431 4.8717C138.226 5.09207 137.946 5.21587 137.655 5.21587C137.364 5.21588 137.085 5.09209 136.879 4.87173C136.673 4.65136 136.558 4.35247 136.558 4.0408C136.558 3.72909 136.673 3.43014 136.879 3.20973C137.085 2.98932 137.364 2.86549 137.655 2.86548C137.8 2.86549 137.942 2.89589 138.075 2.95496C138.209 3.01403 138.33 3.10061 138.431 3.20975C138.533 3.31889 138.614 3.44846 138.669 3.59105C138.725 3.73364 138.753 3.88647 138.753 4.0408Z" fill="#406FBB"/>
<path fill-rule="evenodd" clip-rule="evenodd" d="M132.711 313.506C132.711 313.739 132.647 313.966 132.526 314.159C132.405 314.352 132.234 314.503 132.033 314.592C131.833 314.681 131.612 314.704 131.399 314.659C131.186 314.613 130.991 314.501 130.837 314.337C130.684 314.173 130.579 313.963 130.537 313.735C130.494 313.508 130.516 313.271 130.599 313.057C130.682 312.842 130.823 312.658 131.003 312.529C131.184 312.4 131.396 312.331 131.613 312.331C131.904 312.331 132.184 312.455 132.389 312.675C132.595 312.896 132.711 313.195 132.711 313.506Z" fill="#406FBB"/>
<path fill-rule="evenodd" clip-rule="evenodd" d="M2.72852 141.576C2.72854 141.809 2.6642 142.036 2.5436 142.229C2.42301 142.422 2.25161 142.573 2.05104 142.662C1.85048 142.751 1.62976 142.774 1.41684 142.729C1.20391 142.684 1.00833 142.572 0.8548 142.407C0.701274 142.243 0.596685 142.034 0.554309 141.806C0.511933 141.578 0.53368 141.342 0.616737 141.127C0.699795 140.912 0.840445 140.729 1.02094 140.599C1.20144 140.47 1.41364 140.401 1.63073 140.401C1.77488 140.401 1.91765 140.432 2.05083 140.491C2.18401 140.55 2.30501 140.636 2.40695 140.745C2.50889 140.854 2.58977 140.984 2.64494 141.127C2.70012 141.269 2.72851 141.422 2.72852 141.576Z" fill="#406FBB"/>
<path fill-rule="evenodd" clip-rule="evenodd" d="M175.75 57.3379C175.75 57.5704 175.686 57.7976 175.565 57.9909C175.444 58.1841 175.273 58.3348 175.072 58.4238C174.872 58.5127 174.651 58.536 174.438 58.4907C174.225 58.4453 174.03 58.3334 173.876 58.169C173.723 58.0047 173.618 57.7952 173.576 57.5673C173.533 57.3393 173.555 57.103 173.638 56.8882C173.721 56.6735 173.862 56.49 174.043 56.3608C174.223 56.2317 174.435 56.1628 174.653 56.1628C174.944 56.1628 175.223 56.2867 175.429 56.507C175.634 56.7274 175.75 57.0263 175.75 57.3379Z" fill="#406FBB"/>
<path fill-rule="evenodd" clip-rule="evenodd" d="M90.7969 106.962C90.797 107.195 90.7326 107.422 90.612 107.615C90.4914 107.808 90.32 107.959 90.1194 108.048C89.9188 108.137 89.6981 108.16 89.4851 108.115C89.2722 108.07 89.0766 107.958 88.9231 107.793C88.7696 107.629 88.665 107.42 88.6226 107.192C88.5803 106.964 88.6021 106.727 88.6851 106.513C88.7682 106.298 88.9089 106.114 89.0895 105.985C89.27 105.856 89.4822 105.787 89.6994 105.787C89.9905 105.787 90.2696 105.911 90.4755 106.131C90.6813 106.352 90.7969 106.651 90.7969 106.962Z" fill="#90FFFF"/>
<path fill-rule="evenodd" clip-rule="evenodd" d="M259.088 291.819C259.088 292.051 259.024 292.278 258.903 292.472C258.783 292.665 258.611 292.815 258.411 292.904C258.21 292.993 257.989 293.017 257.776 292.971C257.563 292.926 257.368 292.814 257.214 292.65C257.061 292.485 256.956 292.276 256.914 292.048C256.871 291.82 256.893 291.584 256.976 291.369C257.059 291.154 257.2 290.971 257.38 290.842C257.561 290.713 257.773 290.644 257.99 290.644C258.134 290.644 258.277 290.674 258.41 290.733C258.543 290.792 258.665 290.879 258.766 290.988C258.868 291.097 258.949 291.226 259.004 291.369C259.06 291.511 259.088 291.664 259.088 291.819Z" fill="#B7FFFF"/>
<path fill-rule="evenodd" clip-rule="evenodd" d="M198.885 295.674C198.885 295.907 198.821 296.134 198.7 296.327C198.579 296.52 198.408 296.671 198.207 296.76C198.007 296.849 197.786 296.872 197.573 296.827C197.36 296.782 197.165 296.67 197.011 296.505C196.858 296.341 196.753 296.132 196.711 295.904C196.668 295.676 196.69 295.44 196.773 295.225C196.856 295.01 196.997 294.827 197.177 294.697C197.358 294.568 197.57 294.499 197.787 294.499C198.078 294.499 198.357 294.623 198.563 294.843C198.769 295.064 198.885 295.363 198.885 295.674Z" fill="#90FFFF"/>
<path fill-rule="evenodd" clip-rule="evenodd" d="M47.3839 305.924C47.3839 306.156 47.3196 306.383 47.199 306.577C47.0784 306.77 46.907 306.921 46.7064 307.01C46.5058 307.099 46.2851 307.122 46.0721 307.077C45.8592 307.031 45.6636 306.919 45.5101 306.755C45.3565 306.591 45.252 306.381 45.2096 306.153C45.1672 305.925 45.1889 305.689 45.272 305.474C45.3551 305.26 45.4957 305.076 45.6762 304.947C45.8567 304.818 46.069 304.749 46.2861 304.749C46.4302 304.749 46.573 304.779 46.7062 304.838C46.8394 304.897 46.9604 304.984 47.0624 305.093C47.1643 305.202 47.2452 305.332 47.3003 305.474C47.3555 305.617 47.3839 305.769 47.3839 305.924Z" fill="#90FFFF"/>
<path fill-rule="evenodd" clip-rule="evenodd" d="M346.12 39.553C346.12 39.7854 346.056 40.0126 345.935 40.2059C345.815 40.3992 345.643 40.5498 345.443 40.6388C345.242 40.7278 345.021 40.7511 344.808 40.7057C344.595 40.6604 344.4 40.5485 344.246 40.3841C344.093 40.2197 343.988 40.0103 343.946 39.7824C343.904 39.5544 343.925 39.3181 344.008 39.1033C344.091 38.8886 344.232 38.7051 344.413 38.5759C344.593 38.4468 344.805 38.3779 345.023 38.3779C345.167 38.3779 345.309 38.4083 345.443 38.4673C345.576 38.5264 345.697 38.6129 345.799 38.722C345.901 38.8312 345.982 38.9607 346.037 39.1033C346.092 39.2458 346.12 39.3986 346.12 39.553Z" fill="#90FFFF"/>
<path fill-rule="evenodd" clip-rule="evenodd" d="M308.874 106.962C308.874 107.195 308.81 107.422 308.689 107.615C308.569 107.808 308.397 107.959 308.197 108.048C307.996 108.137 307.775 108.16 307.562 108.115C307.349 108.07 307.154 107.958 307 107.793C306.847 107.629 306.742 107.42 306.7 107.192C306.657 106.964 306.679 106.727 306.762 106.513C306.845 106.298 306.986 106.114 307.167 105.985C307.347 105.856 307.559 105.787 307.777 105.787C308.068 105.787 308.347 105.911 308.553 106.131C308.759 106.352 308.874 106.651 308.874 106.962Z" fill="#90FFFF"/>
<path fill-rule="evenodd" clip-rule="evenodd" d="M199.01 115.626C199.01 115.859 198.946 116.086 198.825 116.279C198.704 116.472 198.533 116.623 198.332 116.712C198.132 116.801 197.911 116.824 197.698 116.779C197.485 116.734 197.29 116.622 197.136 116.457C196.983 116.293 196.878 116.084 196.836 115.856C196.793 115.628 196.815 115.391 196.898 115.177C196.981 114.962 197.122 114.778 197.302 114.649C197.483 114.52 197.695 114.451 197.912 114.451C198.056 114.451 198.199 114.482 198.332 114.541C198.465 114.6 198.586 114.686 198.688 114.795C198.79 114.904 198.871 115.034 198.926 115.176C198.981 115.319 199.01 115.472 199.01 115.626Z" fill="#90FFFF"/>
<path fill-rule="evenodd" clip-rule="evenodd" d="M230.763 312.33C230.763 312.563 230.698 312.79 230.578 312.983C230.457 313.177 230.286 313.327 230.085 313.416C229.885 313.505 229.664 313.529 229.451 313.483C229.238 313.438 229.042 313.326 228.889 313.162C228.735 312.997 228.631 312.788 228.588 312.56C228.546 312.332 228.568 312.096 228.651 311.881C228.734 311.666 228.875 311.483 229.055 311.353C229.236 311.224 229.448 311.155 229.665 311.155C229.809 311.155 229.952 311.186 230.085 311.245C230.218 311.304 230.339 311.39 230.441 311.499C230.543 311.609 230.624 311.738 230.679 311.881C230.734 312.023 230.763 312.176 230.763 312.33Z" fill="#90FFFF"/>
<path fill-rule="evenodd" clip-rule="evenodd" d="M505.995 306.702C505.995 306.934 505.931 307.162 505.81 307.355C505.69 307.548 505.518 307.699 505.318 307.788C505.117 307.877 504.896 307.9 504.683 307.855C504.47 307.809 504.275 307.697 504.121 307.533C503.968 307.369 503.863 307.159 503.821 306.931C503.779 306.703 503.8 306.467 503.883 306.252C503.966 306.038 504.107 305.854 504.288 305.725C504.468 305.596 504.68 305.527 504.898 305.527C505.189 305.527 505.468 305.651 505.674 305.871C505.879 306.091 505.995 306.39 505.995 306.702Z" fill="#90FFFF"/>
<path fill-rule="evenodd" clip-rule="evenodd" d="M659.387 158.334C659.387 158.567 659.322 158.794 659.202 158.987C659.081 159.18 658.91 159.331 658.709 159.42C658.509 159.509 658.288 159.532 658.075 159.487C657.862 159.442 657.667 159.33 657.513 159.165C657.359 159.001 657.255 158.792 657.213 158.564C657.17 158.336 657.192 158.1 657.275 157.885C657.358 157.67 657.499 157.486 657.679 157.357C657.86 157.228 658.072 157.159 658.289 157.159C658.58 157.159 658.859 157.283 659.065 157.503C659.271 157.724 659.387 158.023 659.387 158.334Z" fill="#406FBB"/>
<path fill-rule="evenodd" clip-rule="evenodd" d="M568.833 106.459C568.833 106.692 568.769 106.919 568.648 107.112C568.527 107.305 568.356 107.456 568.155 107.545C567.955 107.634 567.734 107.657 567.521 107.612C567.308 107.566 567.113 107.454 566.959 107.29C566.806 107.126 566.701 106.916 566.659 106.688C566.616 106.461 566.638 106.224 566.721 106.01C566.804 105.795 566.945 105.611 567.126 105.482C567.306 105.353 567.518 105.284 567.735 105.284C568.026 105.284 568.306 105.408 568.511 105.628C568.717 105.849 568.833 106.148 568.833 106.459Z" fill="#406FBB"/>
<path fill-rule="evenodd" clip-rule="evenodd" d="M491.462 191.248C491.462 191.481 491.398 191.708 491.277 191.901C491.157 192.094 490.985 192.245 490.785 192.334C490.584 192.423 490.363 192.446 490.15 192.401C489.937 192.356 489.742 192.244 489.588 192.079C489.435 191.915 489.33 191.706 489.288 191.478C489.245 191.25 489.267 191.014 489.35 190.799C489.433 190.584 489.574 190.401 489.754 190.271C489.935 190.142 490.147 190.073 490.364 190.073C490.655 190.073 490.935 190.197 491.141 190.417C491.346 190.638 491.462 190.937 491.462 191.248Z" fill="#406FBB"/>
</svg>
