<svg width="1440" height="487" viewBox="0 0 1440 487" fill="none" xmlns="http://www.w3.org/2000/svg">
<path fill-rule="evenodd" clip-rule="evenodd" d="M363.215 48.9527C363.215 49.1851 363.15 49.4123 363.03 49.6056C362.909 49.7989 362.738 49.9495 362.537 50.0385C362.337 50.1275 362.116 50.1507 361.903 50.1054C361.69 50.0601 361.495 49.9481 361.341 49.7838C361.188 49.6194 361.083 49.41 361.041 49.182C360.998 48.954 361.02 48.7177 361.103 48.503C361.186 48.2883 361.327 48.1047 361.507 47.9756C361.688 47.8465 361.9 47.7776 362.117 47.7776C362.408 47.7776 362.687 47.9014 362.893 48.1218C363.099 48.3421 363.215 48.641 363.215 48.9527Z" fill="#68B7E7"/>
<path fill-rule="evenodd" clip-rule="evenodd" d="M341.911 175.367C341.911 175.599 341.847 175.826 341.726 176.019C341.606 176.213 341.434 176.363 341.234 176.452C341.033 176.541 340.812 176.565 340.599 176.519C340.386 176.474 340.191 176.362 340.037 176.198C339.884 176.033 339.779 175.824 339.737 175.596C339.695 175.368 339.716 175.132 339.799 174.917C339.882 174.702 340.023 174.519 340.204 174.389C340.384 174.26 340.597 174.191 340.814 174.191C340.958 174.191 341.101 174.222 341.234 174.281C341.367 174.34 341.488 174.426 341.59 174.536C341.692 174.645 341.772 174.774 341.828 174.917C341.883 175.059 341.911 175.212 341.911 175.367Z" fill="#68B7E7"/>
<path fill-rule="evenodd" clip-rule="evenodd" d="M499.228 238.156C499.227 238.388 499.163 238.615 499.042 238.809C498.922 239.002 498.75 239.152 498.55 239.241C498.349 239.33 498.129 239.353 497.916 239.308C497.703 239.263 497.507 239.151 497.354 238.986C497.2 238.822 497.096 238.613 497.053 238.385C497.011 238.157 497.033 237.921 497.116 237.706C497.199 237.491 497.34 237.308 497.52 237.179C497.701 237.049 497.913 236.98 498.13 236.98C498.274 236.98 498.417 237.011 498.55 237.07C498.683 237.129 498.804 237.216 498.906 237.325C499.008 237.434 499.089 237.563 499.144 237.706C499.199 237.849 499.228 238.001 499.228 238.156Z" fill="#68B7E7"/>
<path fill-rule="evenodd" clip-rule="evenodd" d="M530.287 382.179C530.287 382.411 530.223 382.638 530.102 382.831C529.982 383.025 529.81 383.175 529.61 383.264C529.409 383.353 529.188 383.377 528.975 383.331C528.762 383.286 528.567 383.174 528.413 383.01C528.26 382.845 528.155 382.636 528.113 382.408C528.071 382.18 528.092 381.944 528.175 381.729C528.258 381.514 528.399 381.331 528.58 381.201C528.76 381.072 528.973 381.003 529.19 381.003C529.481 381.003 529.76 381.127 529.966 381.348C530.171 381.568 530.287 381.867 530.287 382.179Z" fill="#68B7E7"/>
<path fill-rule="evenodd" clip-rule="evenodd" d="M430.124 190.038C430.124 190.271 430.059 190.498 429.939 190.691C429.818 190.884 429.647 191.035 429.446 191.124C429.246 191.213 429.025 191.236 428.812 191.191C428.599 191.145 428.404 191.034 428.25 190.869C428.097 190.705 427.992 190.496 427.95 190.268C427.907 190.04 427.929 189.803 428.012 189.589C428.095 189.374 428.236 189.19 428.416 189.061C428.597 188.932 428.809 188.863 429.026 188.863C429.17 188.863 429.313 188.894 429.446 188.953C429.579 189.012 429.7 189.098 429.802 189.207C429.904 189.317 429.985 189.446 430.04 189.589C430.095 189.731 430.124 189.884 430.124 190.038Z" fill="#406FBB"/>
<path fill-rule="evenodd" clip-rule="evenodd" d="M378.228 163.249C378.228 163.482 378.164 163.709 378.043 163.902C377.922 164.095 377.751 164.246 377.55 164.335C377.35 164.424 377.129 164.447 376.916 164.402C376.703 164.357 376.507 164.245 376.354 164.08C376.2 163.916 376.096 163.707 376.053 163.479C376.011 163.251 376.033 163.015 376.116 162.8C376.199 162.585 376.34 162.401 376.52 162.272C376.701 162.143 376.913 162.074 377.13 162.074C377.421 162.074 377.7 162.198 377.906 162.418C378.112 162.639 378.228 162.938 378.228 163.249Z" fill="#406FBB"/>
<path fill-rule="evenodd" clip-rule="evenodd" d="M313.767 109.559C313.767 109.791 313.702 110.018 313.582 110.211C313.461 110.405 313.29 110.555 313.089 110.644C312.889 110.733 312.668 110.757 312.455 110.711C312.242 110.666 312.046 110.554 311.893 110.39C311.739 110.225 311.635 110.016 311.592 109.788C311.55 109.56 311.572 109.324 311.655 109.109C311.738 108.894 311.878 108.711 312.059 108.582C312.239 108.453 312.452 108.384 312.669 108.384C312.813 108.384 312.956 108.414 313.089 108.473C313.222 108.532 313.343 108.619 313.445 108.728C313.547 108.837 313.628 108.966 313.683 109.109C313.738 109.251 313.767 109.404 313.767 109.559Z" fill="#365CBB"/>
<path d="M246.293 22.8432C246.899 22.8432 247.391 22.3172 247.391 21.6682C247.391 21.0192 246.899 20.4932 246.293 20.4932C245.687 20.4932 245.195 21.0192 245.195 21.6682C245.195 22.3172 245.687 22.8432 246.293 22.8432Z" fill="#365CBB"/>
<path fill-rule="evenodd" clip-rule="evenodd" d="M446.891 188.867C446.891 189.099 446.827 189.326 446.706 189.52C446.586 189.713 446.414 189.863 446.214 189.952C446.013 190.041 445.792 190.064 445.58 190.019C445.367 189.974 445.171 189.862 445.018 189.697C444.864 189.533 444.76 189.324 444.717 189.096C444.675 188.868 444.697 188.631 444.78 188.417C444.863 188.202 445.004 188.019 445.184 187.889C445.365 187.76 445.577 187.691 445.794 187.691C445.938 187.691 446.081 187.722 446.214 187.781C446.347 187.84 446.468 187.926 446.57 188.036C446.672 188.145 446.753 188.274 446.808 188.417C446.863 188.56 446.891 188.712 446.891 188.867Z" fill="#365CBB"/>
<path fill-rule="evenodd" clip-rule="evenodd" d="M235.05 462.214C235.05 462.446 234.986 462.674 234.865 462.867C234.744 463.06 234.573 463.211 234.372 463.3C234.172 463.389 233.951 463.412 233.738 463.367C233.525 463.321 233.329 463.209 233.176 463.045C233.022 462.881 232.918 462.671 232.876 462.443C232.833 462.215 232.855 461.979 232.938 461.764C233.021 461.55 233.162 461.366 233.342 461.237C233.523 461.108 233.735 461.039 233.952 461.039C234.096 461.039 234.239 461.069 234.372 461.128C234.506 461.188 234.626 461.274 234.728 461.383C234.83 461.492 234.911 461.622 234.966 461.764C235.022 461.907 235.05 462.06 235.05 462.214Z" fill="#90FFFF"/>
<path fill-rule="evenodd" clip-rule="evenodd" d="M485.842 153.218C485.842 153.45 485.777 153.677 485.657 153.87C485.536 154.064 485.365 154.214 485.164 154.303C484.964 154.392 484.743 154.415 484.53 154.37C484.317 154.325 484.121 154.213 483.968 154.048C483.814 153.884 483.71 153.675 483.668 153.447C483.625 153.219 483.647 152.982 483.73 152.768C483.813 152.553 483.954 152.369 484.134 152.24C484.315 152.111 484.527 152.042 484.744 152.042C484.888 152.042 485.031 152.073 485.164 152.132C485.297 152.191 485.418 152.277 485.52 152.386C485.622 152.496 485.703 152.625 485.758 152.768C485.813 152.91 485.842 153.063 485.842 153.218Z" fill="#406FBB"/>
<path fill-rule="evenodd" clip-rule="evenodd" d="M205.527 96.8784C205.527 97.1109 205.463 97.3381 205.343 97.5314C205.222 97.7247 205.05 97.8753 204.85 97.9643C204.649 98.0532 204.429 98.0765 204.216 98.0312C204.003 97.9858 203.807 97.8739 203.654 97.7095C203.5 97.5452 203.395 97.3358 203.353 97.1078C203.311 96.8798 203.333 96.6435 203.416 96.4288C203.499 96.214 203.639 96.0305 203.82 95.9014C204 95.7722 204.213 95.7033 204.43 95.7034C204.721 95.7034 205 95.8272 205.206 96.0475C205.412 96.2679 205.527 96.5668 205.527 96.8784Z" fill="#406FBB"/>
<path fill-rule="evenodd" clip-rule="evenodd" d="M263.49 158.359C263.49 158.591 263.426 158.819 263.305 159.012C263.184 159.205 263.013 159.356 262.812 159.445C262.612 159.533 262.391 159.557 262.178 159.511C261.965 159.466 261.77 159.354 261.616 159.19C261.463 159.025 261.358 158.816 261.316 158.588C261.274 158.36 261.295 158.124 261.378 157.909C261.462 157.694 261.602 157.511 261.783 157.382C261.963 157.253 262.175 157.184 262.393 157.184C262.537 157.184 262.679 157.214 262.813 157.273C262.946 157.332 263.067 157.419 263.169 157.528C263.271 157.637 263.351 157.767 263.407 157.909C263.462 158.052 263.49 158.205 263.49 158.359Z" fill="#406FBB"/>
<path fill-rule="evenodd" clip-rule="evenodd" d="M364.473 476.788C364.473 477.02 364.408 477.247 364.288 477.44C364.167 477.634 363.996 477.784 363.795 477.873C363.594 477.962 363.374 477.985 363.161 477.94C362.948 477.895 362.752 477.783 362.599 477.618C362.445 477.454 362.341 477.245 362.298 477.017C362.256 476.789 362.278 476.553 362.361 476.338C362.444 476.123 362.585 475.94 362.765 475.811C362.946 475.681 363.158 475.613 363.375 475.613C363.666 475.613 363.945 475.736 364.151 475.957C364.357 476.177 364.473 476.476 364.473 476.788Z" fill="#406FBB"/>
<path fill-rule="evenodd" clip-rule="evenodd" d="M277.868 13.4016C277.868 13.6341 277.804 13.8613 277.683 14.0546C277.563 14.2478 277.391 14.3985 277.191 14.4874C276.99 14.5764 276.77 14.5997 276.557 14.5544C276.344 14.5091 276.148 14.3972 275.994 14.2328C275.841 14.0685 275.736 13.8591 275.694 13.6311C275.652 13.4032 275.673 13.1669 275.756 12.9521C275.839 12.7374 275.98 12.5538 276.161 12.4247C276.341 12.2955 276.553 12.2266 276.771 12.2266C277.062 12.2265 277.341 12.3503 277.547 12.5707C277.753 12.7911 277.868 13.09 277.868 13.4016Z" fill="#406FBB"/>
<path fill-rule="evenodd" clip-rule="evenodd" d="M491.158 312.976C491.158 313.208 491.094 313.435 490.973 313.628C490.853 313.822 490.681 313.972 490.481 314.061C490.28 314.15 490.059 314.173 489.846 314.128C489.633 314.083 489.438 313.971 489.284 313.807C489.131 313.642 489.026 313.433 488.984 313.205C488.942 312.977 488.963 312.741 489.046 312.526C489.129 312.311 489.27 312.128 489.451 311.999C489.631 311.869 489.843 311.801 490.061 311.801C490.352 311.801 490.631 311.924 490.837 312.145C491.042 312.365 491.158 312.664 491.158 312.976Z" fill="#406FBB"/>
<path fill-rule="evenodd" clip-rule="evenodd" d="M141.843 150.937C141.843 151.17 141.778 151.397 141.658 151.59C141.537 151.783 141.366 151.934 141.165 152.023C140.965 152.112 140.744 152.135 140.531 152.09C140.318 152.044 140.122 151.933 139.969 151.768C139.815 151.604 139.711 151.394 139.669 151.167C139.626 150.939 139.648 150.702 139.731 150.488C139.814 150.273 139.955 150.089 140.135 149.96C140.316 149.831 140.528 149.762 140.745 149.762C141.036 149.762 141.315 149.886 141.521 150.106C141.727 150.327 141.843 150.626 141.843 150.937Z" fill="#406FBB"/>
<path fill-rule="evenodd" clip-rule="evenodd" d="M400.604 261.092C400.604 261.325 400.539 261.552 400.419 261.745C400.298 261.938 400.127 262.089 399.926 262.178C399.726 262.267 399.505 262.29 399.292 262.245C399.079 262.2 398.883 262.088 398.73 261.923C398.576 261.759 398.472 261.55 398.429 261.322C398.387 261.094 398.409 260.857 398.492 260.643C398.575 260.428 398.716 260.244 398.896 260.115C399.077 259.986 399.289 259.917 399.506 259.917C399.797 259.917 400.076 260.041 400.282 260.261C400.488 260.482 400.604 260.781 400.604 261.092Z" fill="#406FBB"/>
<path fill-rule="evenodd" clip-rule="evenodd" d="M314.865 66.7031C314.865 66.9355 314.801 67.1628 314.68 67.356C314.56 67.5493 314.388 67.6999 314.188 67.7889C313.987 67.8779 313.766 67.9011 313.554 67.8558C313.341 67.8105 313.145 67.6985 312.991 67.5342C312.838 67.3698 312.733 67.1604 312.691 66.9325C312.649 66.7045 312.67 66.4682 312.754 66.2535C312.837 66.0387 312.977 65.8552 313.158 65.7261C313.338 65.597 313.551 65.5281 313.768 65.5281C314.059 65.5281 314.338 65.6519 314.544 65.8723C314.75 66.0926 314.865 66.3915 314.865 66.7031Z" fill="#406FBB"/>
<path fill-rule="evenodd" clip-rule="evenodd" d="M571.47 347.019C571.47 347.251 571.405 347.478 571.285 347.672C571.164 347.865 570.993 348.016 570.792 348.105C570.592 348.194 570.371 348.217 570.158 348.172C569.945 348.126 569.749 348.014 569.596 347.85C569.442 347.686 569.338 347.476 569.296 347.248C569.253 347.02 569.275 346.784 569.358 346.569C569.441 346.354 569.582 346.171 569.762 346.042C569.943 345.913 570.155 345.844 570.372 345.844C570.663 345.844 570.942 345.968 571.148 346.188C571.354 346.408 571.47 346.707 571.47 347.019Z" fill="#406FBB"/>
<path fill-rule="evenodd" clip-rule="evenodd" d="M508.043 71.4183C508.043 71.6507 507.979 71.8779 507.858 72.0711C507.737 72.2644 507.566 72.415 507.365 72.5039C507.165 72.5928 506.944 72.6161 506.731 72.5708C506.518 72.5254 506.323 72.4135 506.169 72.2491C506.016 72.0848 505.911 71.8754 505.869 71.6474C505.826 71.4195 505.848 71.1832 505.931 70.9684C506.014 70.7537 506.155 70.5702 506.335 70.441C506.516 70.3119 506.728 70.2429 506.945 70.2429C507.089 70.2429 507.232 70.2733 507.365 70.3324C507.499 70.3914 507.62 70.478 507.722 70.5872C507.824 70.6963 507.904 70.8259 507.96 70.9685C508.015 71.1111 508.043 71.2639 508.043 71.4183Z" fill="#68B7E7"/>
<path fill-rule="evenodd" clip-rule="evenodd" d="M561.862 81.1824C561.862 81.4148 561.797 81.642 561.677 81.8352C561.556 82.0284 561.384 82.179 561.184 82.268C560.983 82.3569 560.763 82.3802 560.55 82.3348C560.337 82.2895 560.141 82.1775 559.988 82.0132C559.834 81.8489 559.729 81.6395 559.687 81.4115C559.645 81.1836 559.666 80.9473 559.75 80.7326C559.833 80.5179 559.973 80.3343 560.154 80.2052C560.334 80.076 560.547 80.0071 560.764 80.0071C560.908 80.0071 561.051 80.0375 561.184 80.0965C561.317 80.1556 561.438 80.2422 561.54 80.3513C561.642 80.4604 561.723 80.59 561.778 80.7326C561.833 80.8752 561.862 81.028 561.862 81.1824Z" fill="#406FBB"/>
<path fill-rule="evenodd" clip-rule="evenodd" d="M435.494 385.793C435.494 386.025 435.429 386.253 435.309 386.446C435.188 386.639 435.017 386.79 434.816 386.879C434.616 386.968 434.395 386.991 434.182 386.945C433.969 386.9 433.774 386.788 433.62 386.624C433.467 386.46 433.362 386.25 433.32 386.022C433.278 385.794 433.299 385.558 433.382 385.343C433.465 385.129 433.606 384.945 433.787 384.816C433.967 384.687 434.179 384.618 434.396 384.618C434.54 384.618 434.683 384.648 434.816 384.707C434.949 384.766 435.07 384.853 435.172 384.962C435.274 385.071 435.355 385.201 435.41 385.343C435.465 385.486 435.494 385.639 435.494 385.793Z" fill="#406FBB"/>
<path fill-rule="evenodd" clip-rule="evenodd" d="M229.91 116.332C229.91 116.564 229.846 116.791 229.725 116.985C229.605 117.178 229.433 117.329 229.233 117.417C229.032 117.506 228.811 117.53 228.598 117.484C228.385 117.439 228.19 117.327 228.036 117.163C227.883 116.998 227.778 116.789 227.736 116.561C227.694 116.333 227.715 116.097 227.798 115.882C227.882 115.667 228.022 115.484 228.203 115.355C228.383 115.225 228.595 115.157 228.813 115.157C229.104 115.157 229.383 115.28 229.589 115.501C229.794 115.721 229.91 116.02 229.91 116.332Z" fill="#90FFFF"/>
<path d="M331.298 131.69C331.904 131.69 332.395 131.164 332.395 130.515C332.395 129.866 331.904 129.34 331.298 129.34C330.692 129.34 330.2 129.866 330.2 130.515C330.2 131.164 330.692 131.69 331.298 131.69Z" fill="#90FFFF"/>
<path fill-rule="evenodd" clip-rule="evenodd" d="M136.184 71.3823C136.184 71.6147 136.12 71.8419 135.999 72.0351C135.879 72.2283 135.707 72.3788 135.507 72.4677C135.306 72.5566 135.085 72.5799 134.873 72.5345C134.66 72.4891 134.464 72.3772 134.311 72.2129C134.157 72.0485 134.053 71.8392 134.01 71.6112C133.968 71.3833 133.99 71.147 134.073 70.9324C134.156 70.7177 134.297 70.5341 134.477 70.405C134.658 70.2759 134.87 70.207 135.087 70.207C135.231 70.207 135.374 70.2374 135.507 70.2965C135.64 70.3556 135.761 70.4421 135.863 70.5513C135.965 70.6604 136.046 70.79 136.101 70.9326C136.156 71.0752 136.184 71.228 136.184 71.3823Z" fill="#90FFFF"/>
<path fill-rule="evenodd" clip-rule="evenodd" d="M398.203 301.178C398.203 301.411 398.139 301.638 398.018 301.831C397.897 302.024 397.726 302.175 397.525 302.264C397.325 302.353 397.104 302.376 396.891 302.331C396.678 302.285 396.483 302.173 396.329 302.009C396.176 301.845 396.071 301.635 396.029 301.408C395.987 301.18 396.008 300.943 396.091 300.729C396.174 300.514 396.315 300.33 396.496 300.201C396.676 300.072 396.888 300.003 397.105 300.003C397.397 300.003 397.676 300.127 397.882 300.347C398.087 300.568 398.203 300.867 398.203 301.178Z" fill="#B7FFFF"/>
<path fill-rule="evenodd" clip-rule="evenodd" d="M352.784 25.3316C352.784 25.564 352.72 25.7912 352.599 25.9844C352.479 26.1777 352.307 26.3283 352.107 26.4172C351.906 26.5062 351.685 26.5294 351.472 26.4841C351.26 26.4387 351.064 26.3268 350.91 26.1625C350.757 25.9981 350.652 25.7887 350.61 25.5608C350.568 25.3328 350.589 25.0965 350.672 24.8818C350.755 24.6671 350.896 24.4835 351.077 24.3544C351.257 24.2252 351.469 24.1563 351.686 24.1563C351.831 24.1562 351.973 24.1866 352.107 24.2457C352.24 24.3048 352.361 24.3913 352.463 24.5005C352.565 24.6096 352.646 24.7392 352.701 24.8818C352.756 25.0244 352.784 25.1772 352.784 25.3316Z" fill="#90FFFF"/>
<path fill-rule="evenodd" clip-rule="evenodd" d="M560.764 186.074C560.764 186.307 560.7 186.534 560.579 186.727C560.459 186.92 560.287 187.071 560.087 187.16C559.886 187.249 559.666 187.272 559.453 187.227C559.24 187.181 559.044 187.069 558.891 186.905C558.737 186.741 558.633 186.531 558.59 186.303C558.548 186.076 558.57 185.839 558.653 185.625C558.736 185.41 558.877 185.226 559.057 185.097C559.238 184.968 559.45 184.899 559.667 184.899C559.958 184.899 560.237 185.023 560.443 185.243C560.649 185.464 560.764 185.763 560.764 186.074Z" fill="#90FFFF"/>
<path fill-rule="evenodd" clip-rule="evenodd" d="M338 305.038C338 305.271 337.936 305.498 337.815 305.691C337.694 305.884 337.523 306.035 337.322 306.124C337.122 306.213 336.901 306.236 336.688 306.191C336.475 306.146 336.28 306.034 336.126 305.869C335.973 305.705 335.868 305.496 335.826 305.268C335.783 305.04 335.805 304.803 335.888 304.589C335.971 304.374 336.112 304.19 336.293 304.061C336.473 303.932 336.685 303.863 336.902 303.863C337.193 303.863 337.473 303.987 337.678 304.207C337.884 304.428 338 304.727 338 305.038Z" fill="#90FFFF"/>
<path fill-rule="evenodd" clip-rule="evenodd" d="M186.499 315.289C186.499 315.522 186.435 315.749 186.314 315.942C186.193 316.135 186.022 316.286 185.821 316.375C185.621 316.464 185.4 316.487 185.187 316.442C184.974 316.396 184.779 316.285 184.625 316.12C184.472 315.956 184.367 315.746 184.325 315.518C184.282 315.291 184.304 315.054 184.387 314.84C184.47 314.625 184.611 314.441 184.791 314.312C184.972 314.183 185.184 314.114 185.401 314.114C185.545 314.114 185.688 314.144 185.821 314.203C185.955 314.262 186.076 314.349 186.178 314.458C186.28 314.567 186.36 314.697 186.416 314.84C186.471 314.982 186.499 315.135 186.499 315.289Z" fill="#90FFFF"/>
<path fill-rule="evenodd" clip-rule="evenodd" d="M485.234 48.9133C485.234 49.1458 485.17 49.373 485.049 49.5663C484.929 49.7596 484.757 49.9102 484.557 49.9992C484.356 50.0881 484.136 50.1114 483.923 50.0661C483.71 50.0207 483.514 49.9088 483.361 49.7445C483.207 49.5801 483.103 49.3707 483.06 49.1427C483.018 48.9147 483.039 48.6784 483.123 48.4637C483.206 48.2489 483.346 48.0654 483.527 47.9363C483.707 47.8072 483.92 47.7383 484.137 47.7383C484.428 47.7383 484.707 47.8622 484.913 48.0825C485.119 48.3029 485.234 48.6017 485.234 48.9133Z" fill="#90FFFF"/>
<path fill-rule="evenodd" clip-rule="evenodd" d="M447.989 116.332C447.989 116.564 447.925 116.791 447.804 116.985C447.684 117.178 447.512 117.329 447.312 117.417C447.111 117.506 446.891 117.53 446.678 117.484C446.465 117.439 446.269 117.327 446.116 117.163C445.962 116.999 445.857 116.789 445.815 116.561C445.773 116.333 445.794 116.097 445.877 115.882C445.96 115.667 446.101 115.484 446.282 115.355C446.462 115.226 446.674 115.157 446.891 115.157C447.036 115.157 447.178 115.187 447.312 115.246C447.445 115.305 447.566 115.392 447.668 115.501C447.77 115.61 447.851 115.739 447.906 115.882C447.961 116.025 447.989 116.177 447.989 116.332Z" fill="#90FFFF"/>
<path fill-rule="evenodd" clip-rule="evenodd" d="M334.578 116.706C334.578 116.939 334.514 117.166 334.393 117.359C334.273 117.553 334.101 117.703 333.901 117.792C333.7 117.881 333.479 117.904 333.266 117.859C333.053 117.814 332.858 117.702 332.704 117.537C332.551 117.373 332.446 117.164 332.404 116.936C332.362 116.708 332.383 116.471 332.466 116.257C332.549 116.042 332.69 115.858 332.871 115.729C333.051 115.6 333.263 115.531 333.481 115.531C333.625 115.531 333.767 115.562 333.901 115.621C334.034 115.68 334.155 115.766 334.257 115.875C334.359 115.984 334.439 116.114 334.495 116.257C334.55 116.399 334.578 116.552 334.578 116.706Z" fill="#90FFFF"/>
<path fill-rule="evenodd" clip-rule="evenodd" d="M369.878 321.69C369.878 321.922 369.814 322.149 369.693 322.343C369.572 322.536 369.401 322.686 369.2 322.775C369 322.864 368.779 322.888 368.566 322.842C368.353 322.797 368.158 322.685 368.004 322.521C367.851 322.356 367.746 322.147 367.704 321.919C367.661 321.691 367.683 321.455 367.766 321.24C367.849 321.025 367.99 320.842 368.171 320.713C368.351 320.584 368.563 320.515 368.78 320.515C369.072 320.515 369.351 320.638 369.557 320.859C369.762 321.079 369.878 321.378 369.878 321.69Z" fill="#90FFFF"/>
<path fill-rule="evenodd" clip-rule="evenodd" d="M339.112 220.218C339.112 220.45 339.048 220.678 338.927 220.871C338.807 221.064 338.635 221.215 338.435 221.304C338.234 221.393 338.014 221.416 337.801 221.371C337.588 221.326 337.392 221.214 337.239 221.049C337.085 220.885 336.98 220.676 336.938 220.448C336.896 220.22 336.917 219.983 337.001 219.769C337.084 219.554 337.224 219.37 337.405 219.241C337.585 219.112 337.797 219.043 338.014 219.043C338.306 219.043 338.585 219.167 338.791 219.387C338.997 219.608 339.112 219.906 339.112 220.218Z" fill="#68B7E7"/>
<path fill-rule="evenodd" clip-rule="evenodd" d="M270.009 172.109C270.009 172.341 269.945 172.568 269.824 172.762C269.703 172.955 269.532 173.106 269.331 173.195C269.131 173.284 268.91 173.307 268.697 173.261C268.484 173.216 268.288 173.104 268.135 172.94C267.981 172.775 267.877 172.566 267.835 172.338C267.792 172.11 267.814 171.874 267.897 171.659C267.98 171.444 268.121 171.261 268.301 171.132C268.482 171.002 268.694 170.934 268.911 170.934C269.202 170.934 269.482 171.057 269.687 171.278C269.893 171.498 270.009 171.797 270.009 172.109Z" fill="#406FBB"/>
<path fill-rule="evenodd" clip-rule="evenodd" d="M218.112 145.319C218.112 145.552 218.048 145.779 217.927 145.972C217.807 146.165 217.635 146.316 217.435 146.405C217.234 146.493 217.013 146.517 216.8 146.471C216.587 146.426 216.392 146.314 216.238 146.15C216.085 145.985 215.98 145.776 215.938 145.548C215.896 145.32 215.917 145.084 216.001 144.869C216.084 144.654 216.224 144.471 216.405 144.342C216.585 144.213 216.798 144.144 217.015 144.144C217.159 144.144 217.302 144.174 217.435 144.233C217.568 144.292 217.689 144.379 217.791 144.488C217.893 144.597 217.974 144.727 218.029 144.869C218.084 145.012 218.112 145.165 218.112 145.319Z" fill="#406FBB"/>
<path fill-rule="evenodd" clip-rule="evenodd" d="M153.653 91.6241C153.653 91.8565 153.589 92.0838 153.469 92.2771C153.348 92.4704 153.176 92.621 152.976 92.71C152.775 92.799 152.555 92.8223 152.342 92.777C152.129 92.7316 151.933 92.6197 151.78 92.4554C151.626 92.291 151.522 92.0816 151.479 91.8537C151.437 91.6257 151.458 91.3894 151.542 91.1746C151.625 90.9599 151.765 90.7763 151.946 90.6471C152.126 90.5179 152.338 90.449 152.556 90.449C152.847 90.449 153.126 90.5728 153.332 90.7931C153.538 91.0135 153.653 91.3124 153.653 91.6241Z" fill="#365CBB"/>
<path fill-rule="evenodd" clip-rule="evenodd" d="M87.2772 3.73365C87.2772 3.88798 87.2488 4.04081 87.1937 4.1834C87.1385 4.32599 87.0577 4.45556 86.9558 4.5647C86.8538 4.67384 86.7328 4.76041 86.5997 4.81948C86.4665 4.87855 86.3237 4.90896 86.1796 4.90897C86.0354 4.90896 85.8927 4.87855 85.7595 4.81948C85.6263 4.76041 85.5053 4.67384 85.4034 4.5647C85.3015 4.45556 85.2207 4.32599 85.1655 4.1834C85.1104 4.04081 85.082 3.88798 85.082 3.73365C85.082 3.42201 85.1977 3.12313 85.4035 2.90276C85.6093 2.68239 85.8885 2.55859 86.1796 2.55859C86.4707 2.55859 86.7499 2.68239 86.9557 2.90276C87.1615 3.12313 87.2772 3.42201 87.2772 3.73365Z" fill="#365CBB"/>
<path fill-rule="evenodd" clip-rule="evenodd" d="M105.758 268.777C105.758 269.01 105.694 269.237 105.573 269.43C105.452 269.623 105.281 269.774 105.08 269.863C104.88 269.952 104.659 269.975 104.446 269.93C104.233 269.885 104.038 269.773 103.884 269.608C103.731 269.444 103.626 269.235 103.584 269.007C103.541 268.779 103.563 268.542 103.646 268.328C103.729 268.113 103.87 267.929 104.05 267.8C104.231 267.671 104.443 267.602 104.66 267.602C104.951 267.602 105.23 267.726 105.436 267.946C105.642 268.167 105.758 268.466 105.758 268.777Z" fill="#365CBB"/>
<path fill-rule="evenodd" clip-rule="evenodd" d="M286.776 170.933C286.776 171.166 286.712 171.393 286.591 171.586C286.471 171.779 286.299 171.93 286.099 172.019C285.898 172.108 285.678 172.131 285.465 172.086C285.252 172.04 285.056 171.928 284.903 171.764C284.749 171.6 284.645 171.39 284.602 171.162C284.56 170.934 284.582 170.698 284.665 170.483C284.748 170.269 284.888 170.085 285.069 169.956C285.249 169.827 285.462 169.758 285.679 169.758C285.823 169.758 285.966 169.788 286.099 169.847C286.232 169.906 286.353 169.993 286.455 170.102C286.557 170.211 286.638 170.341 286.693 170.483C286.748 170.626 286.776 170.779 286.776 170.933Z" fill="#365CBB"/>
<path fill-rule="evenodd" clip-rule="evenodd" d="M45.4123 78.9483C45.4123 79.1807 45.3479 79.4079 45.2273 79.6012C45.1067 79.7945 44.9353 79.9451 44.7347 80.0341C44.5341 80.1231 44.3134 80.1463 44.1004 80.101C43.8875 80.0557 43.6919 79.9437 43.5383 79.7794C43.3848 79.615 43.2802 79.4056 43.2379 79.1776C43.1955 78.9496 43.2173 78.7133 43.3004 78.4986C43.3835 78.2839 43.5242 78.1003 43.7047 77.9712C43.8853 77.8421 44.0975 77.7732 44.3146 77.7732C44.6057 77.7732 44.8849 77.8971 45.0907 78.1174C45.2966 78.3378 45.4122 78.6366 45.4123 78.9483Z" fill="#406FBB"/>
<path fill-rule="evenodd" clip-rule="evenodd" d="M103.376 140.429C103.376 140.661 103.311 140.888 103.191 141.081C103.07 141.275 102.899 141.425 102.698 141.514C102.498 141.603 102.277 141.626 102.064 141.581C101.851 141.536 101.656 141.424 101.502 141.259C101.349 141.095 101.244 140.886 101.202 140.658C101.159 140.43 101.181 140.194 101.264 139.979C101.347 139.764 101.488 139.581 101.668 139.451C101.849 139.322 102.061 139.253 102.278 139.253C102.569 139.253 102.848 139.377 103.054 139.598C103.26 139.818 103.376 140.117 103.376 140.429Z" fill="#406FBB"/>
<path fill-rule="evenodd" clip-rule="evenodd" d="M111.711 304.937C111.711 305.169 111.647 305.397 111.526 305.59C111.405 305.783 111.234 305.934 111.033 306.023C110.833 306.112 110.612 306.135 110.399 306.089C110.186 306.044 109.991 305.932 109.837 305.768C109.684 305.603 109.579 305.394 109.537 305.166C109.494 304.938 109.516 304.702 109.599 304.487C109.682 304.272 109.823 304.089 110.003 303.96C110.184 303.831 110.396 303.762 110.613 303.762C110.904 303.762 111.184 303.886 111.389 304.106C111.595 304.326 111.711 304.625 111.711 304.937Z" fill="#406FBB"/>
<path fill-rule="evenodd" clip-rule="evenodd" d="M154.75 48.7686C154.75 49.001 154.686 49.2282 154.565 49.4215C154.444 49.6148 154.273 49.7655 154.072 49.8544C153.872 49.9434 153.651 49.9667 153.438 49.9213C153.225 49.876 153.03 49.764 152.876 49.5997C152.723 49.4353 152.618 49.2259 152.576 48.9979C152.533 48.7699 152.555 48.5336 152.638 48.3189C152.721 48.1042 152.862 47.9206 153.043 47.7915C153.223 47.6624 153.435 47.5935 153.653 47.5935C153.944 47.5935 154.223 47.7173 154.429 47.9377C154.634 48.1581 154.75 48.4569 154.75 48.7686Z" fill="#406FBB"/>
<path fill-rule="evenodd" clip-rule="evenodd" d="M69.7969 98.3928C69.797 98.6252 69.7326 98.8525 69.612 99.0457C69.4914 99.239 69.32 99.3896 69.1194 99.4786C68.9188 99.5676 68.6981 99.5908 68.4851 99.5455C68.2722 99.5002 68.0766 99.3882 67.9231 99.2239C67.7696 99.0595 67.665 98.8501 67.6226 98.6221C67.5803 98.3942 67.6021 98.1579 67.6851 97.9432C67.7682 97.7284 67.9089 97.5449 68.0895 97.4158C68.27 97.2867 68.4822 97.2177 68.6994 97.2178C68.9905 97.2178 69.2696 97.3416 69.4755 97.5619C69.6813 97.7823 69.7969 98.0812 69.7969 98.3928Z" fill="#90FFFF"/>
<path fill-rule="evenodd" clip-rule="evenodd" d="M238.088 283.249C238.088 283.482 238.024 283.709 237.903 283.902C237.783 284.096 237.611 284.246 237.411 284.335C237.21 284.424 236.989 284.447 236.776 284.402C236.563 284.357 236.368 284.245 236.214 284.08C236.061 283.916 235.956 283.707 235.914 283.479C235.871 283.251 235.893 283.015 235.976 282.8C236.059 282.585 236.2 282.401 236.38 282.272C236.561 282.143 236.773 282.074 236.99 282.074C237.134 282.074 237.277 282.105 237.41 282.164C237.543 282.223 237.665 282.309 237.766 282.418C237.868 282.527 237.949 282.657 238.004 282.8C238.06 282.942 238.088 283.095 238.088 283.249Z" fill="#B7FFFF"/>
<path fill-rule="evenodd" clip-rule="evenodd" d="M177.885 287.105C177.885 287.337 177.821 287.565 177.7 287.758C177.579 287.951 177.408 288.102 177.207 288.191C177.007 288.28 176.786 288.303 176.573 288.258C176.36 288.212 176.165 288.101 176.011 287.936C175.858 287.772 175.753 287.562 175.711 287.335C175.668 287.107 175.69 286.87 175.773 286.656C175.856 286.441 175.997 286.257 176.177 286.128C176.358 285.999 176.57 285.93 176.787 285.93C177.078 285.93 177.357 286.054 177.563 286.274C177.769 286.494 177.885 286.793 177.885 287.105Z" fill="#90FFFF"/>
<path fill-rule="evenodd" clip-rule="evenodd" d="M26.3839 297.354C26.3839 297.587 26.3196 297.814 26.199 298.007C26.0784 298.201 25.907 298.351 25.7064 298.44C25.5058 298.529 25.2851 298.553 25.0721 298.507C24.8592 298.462 24.6636 298.35 24.5101 298.186C24.3565 298.021 24.252 297.812 24.2096 297.584C24.1672 297.356 24.1889 297.12 24.272 296.905C24.3551 296.69 24.4957 296.507 24.6762 296.378C24.8567 296.248 25.069 296.179 25.2861 296.179C25.4302 296.179 25.573 296.21 25.7062 296.269C25.8394 296.328 25.9604 296.414 26.0624 296.524C26.1643 296.633 26.2452 296.762 26.3003 296.905C26.3555 297.047 26.3839 297.2 26.3839 297.354Z" fill="#90FFFF"/>
<path fill-rule="evenodd" clip-rule="evenodd" d="M325.12 30.9836C325.12 31.2161 325.056 31.4433 324.935 31.6366C324.815 31.8299 324.643 31.9805 324.443 32.0695C324.242 32.1584 324.021 32.1817 323.808 32.1364C323.595 32.0911 323.4 31.9791 323.246 31.8148C323.093 31.6504 322.988 31.441 322.946 31.213C322.904 30.9851 322.925 30.7487 323.008 30.534C323.091 30.3193 323.232 30.1357 323.413 30.0066C323.593 29.8775 323.805 29.8086 324.023 29.8086C324.167 29.8086 324.309 29.8389 324.443 29.898C324.576 29.957 324.697 30.0436 324.799 30.1527C324.901 30.2618 324.982 30.3914 325.037 30.5339C325.092 30.6765 325.12 30.8293 325.12 30.9836Z" fill="#90FFFF"/>
<path fill-rule="evenodd" clip-rule="evenodd" d="M287.874 98.3928C287.874 98.6252 287.81 98.8525 287.689 99.0457C287.569 99.239 287.397 99.3896 287.197 99.4786C286.996 99.5676 286.775 99.5908 286.562 99.5455C286.349 99.5002 286.154 99.3882 286 99.2239C285.847 99.0595 285.742 98.8501 285.7 98.6221C285.657 98.3942 285.679 98.1579 285.762 97.9432C285.845 97.7284 285.986 97.5449 286.167 97.4158C286.347 97.2867 286.559 97.2177 286.777 97.2178C287.068 97.2178 287.347 97.3416 287.553 97.5619C287.759 97.7823 287.874 98.0812 287.874 98.3928Z" fill="#90FFFF"/>
<path fill-rule="evenodd" clip-rule="evenodd" d="M178.01 107.057C178.01 107.289 177.946 107.517 177.825 107.71C177.704 107.903 177.533 108.054 177.332 108.143C177.132 108.232 176.911 108.255 176.698 108.21C176.485 108.164 176.29 108.052 176.136 107.888C175.983 107.724 175.878 107.514 175.836 107.286C175.793 107.058 175.815 106.822 175.898 106.607C175.981 106.393 176.122 106.209 176.302 106.08C176.483 105.951 176.695 105.882 176.912 105.882C177.056 105.882 177.199 105.912 177.332 105.971C177.465 106.03 177.586 106.117 177.688 106.226C177.79 106.335 177.871 106.465 177.926 106.607C177.981 106.75 178.01 106.903 178.01 107.057Z" fill="#90FFFF"/>
<path fill-rule="evenodd" clip-rule="evenodd" d="M209.763 303.761C209.763 303.993 209.698 304.221 209.578 304.414C209.457 304.607 209.286 304.758 209.085 304.847C208.885 304.936 208.664 304.959 208.451 304.914C208.238 304.869 208.042 304.757 207.889 304.592C207.735 304.428 207.631 304.219 207.588 303.991C207.546 303.763 207.568 303.526 207.651 303.312C207.734 303.097 207.875 302.913 208.055 302.784C208.236 302.655 208.448 302.586 208.665 302.586C208.809 302.586 208.952 302.616 209.085 302.675C209.218 302.734 209.339 302.821 209.441 302.93C209.543 303.039 209.624 303.169 209.679 303.311C209.734 303.454 209.763 303.607 209.763 303.761Z" fill="#90FFFF"/>
<path fill-rule="evenodd" clip-rule="evenodd" d="M484.995 298.133C484.995 298.365 484.931 298.592 484.81 298.786C484.69 298.979 484.518 299.13 484.318 299.219C484.117 299.307 483.896 299.331 483.683 299.285C483.47 299.24 483.275 299.128 483.121 298.964C482.968 298.799 482.863 298.59 482.821 298.362C482.779 298.134 482.8 297.898 482.883 297.683C482.966 297.468 483.107 297.285 483.288 297.156C483.468 297.026 483.68 296.957 483.898 296.958C484.189 296.958 484.468 297.081 484.674 297.302C484.88 297.522 484.995 297.821 484.995 298.133Z" fill="#90FFFF"/>
<path fill-rule="evenodd" clip-rule="evenodd" d="M638.387 149.765C638.387 149.997 638.322 150.225 638.202 150.418C638.081 150.611 637.91 150.762 637.709 150.851C637.509 150.94 637.288 150.963 637.075 150.918C636.862 150.872 636.667 150.76 636.513 150.596C636.359 150.432 636.255 150.222 636.213 149.994C636.17 149.766 636.192 149.53 636.275 149.315C636.358 149.101 636.499 148.917 636.679 148.788C636.86 148.659 637.072 148.59 637.289 148.59C637.58 148.59 637.859 148.714 638.065 148.934C638.271 149.154 638.387 149.453 638.387 149.765Z" fill="#406FBB"/>
<path fill-rule="evenodd" clip-rule="evenodd" d="M547.833 97.8899C547.833 98.1223 547.769 98.3495 547.648 98.5427C547.527 98.7359 547.356 98.8865 547.155 98.9755C546.955 99.0644 546.734 99.0877 546.521 99.0423C546.308 98.997 546.113 98.8851 545.959 98.7208C545.806 98.5564 545.701 98.3471 545.659 98.1191C545.616 97.8912 545.638 97.6549 545.721 97.4402C545.804 97.2255 545.945 97.042 546.126 96.9129C546.306 96.7838 546.518 96.7148 546.735 96.7148C547.026 96.7149 547.306 96.8387 547.511 97.0591C547.717 97.2794 547.833 97.5783 547.833 97.8899Z" fill="#406FBB"/>
<path fill-rule="evenodd" clip-rule="evenodd" d="M470.462 182.679C470.462 182.911 470.398 183.139 470.277 183.332C470.157 183.525 469.985 183.676 469.785 183.765C469.584 183.854 469.363 183.877 469.15 183.832C468.937 183.786 468.742 183.674 468.588 183.51C468.435 183.346 468.33 183.136 468.288 182.908C468.245 182.681 468.267 182.444 468.35 182.229C468.433 182.015 468.574 181.831 468.754 181.702C468.935 181.573 469.147 181.504 469.364 181.504C469.655 181.504 469.935 181.628 470.141 181.848C470.346 182.068 470.462 182.367 470.462 182.679Z" fill="#406FBB"/>
<path fill-rule="evenodd" clip-rule="evenodd" d="M1075.21 57.522C1075.21 57.7544 1075.15 57.9817 1075.03 58.1749C1074.91 58.3682 1074.74 58.5189 1074.54 58.6078C1074.34 58.6968 1074.12 58.7201 1073.9 58.6747C1073.69 58.6294 1073.49 58.5175 1073.34 58.3531C1073.19 58.1887 1073.08 57.9793 1073.04 57.7514C1073 57.5234 1073.02 57.2871 1073.1 57.0723C1073.19 56.8576 1073.33 56.6741 1073.51 56.5449C1073.69 56.4158 1073.9 56.3469 1074.12 56.3469C1074.41 56.3469 1074.69 56.4707 1074.89 56.6911C1075.1 56.9115 1075.21 57.2104 1075.21 57.522Z" fill="#68B7E7"/>
<path fill-rule="evenodd" clip-rule="evenodd" d="M1053.91 183.936C1053.91 184.168 1053.85 184.396 1053.73 184.589C1053.61 184.782 1053.43 184.933 1053.23 185.022C1053.03 185.111 1052.81 185.134 1052.6 185.089C1052.39 185.043 1052.19 184.931 1052.04 184.767C1051.88 184.603 1051.78 184.393 1051.74 184.165C1051.69 183.937 1051.72 183.701 1051.8 183.486C1051.88 183.271 1052.02 183.088 1052.2 182.959C1052.38 182.83 1052.6 182.761 1052.81 182.761C1052.96 182.761 1053.1 182.791 1053.23 182.85C1053.37 182.909 1053.49 182.996 1053.59 183.105C1053.69 183.214 1053.77 183.344 1053.83 183.486C1053.88 183.629 1053.91 183.782 1053.91 183.936Z" fill="#68B7E7"/>
<path fill-rule="evenodd" clip-rule="evenodd" d="M1211.23 246.725C1211.23 246.958 1211.16 247.185 1211.04 247.378C1210.92 247.571 1210.75 247.722 1210.55 247.811C1210.35 247.899 1210.13 247.923 1209.92 247.877C1209.7 247.832 1209.51 247.72 1209.35 247.556C1209.2 247.391 1209.1 247.182 1209.05 246.954C1209.01 246.726 1209.03 246.49 1209.12 246.275C1209.2 246.06 1209.34 245.877 1209.52 245.748C1209.7 245.619 1209.91 245.55 1210.13 245.55C1210.27 245.55 1210.42 245.58 1210.55 245.639C1210.68 245.698 1210.8 245.785 1210.91 245.894C1211.01 246.003 1211.09 246.133 1211.14 246.275C1211.2 246.418 1211.23 246.571 1211.23 246.725Z" fill="#68B7E7"/>
<path fill-rule="evenodd" clip-rule="evenodd" d="M1242.29 390.748C1242.29 390.98 1242.22 391.208 1242.1 391.401C1241.98 391.594 1241.81 391.745 1241.61 391.834C1241.41 391.923 1241.19 391.946 1240.98 391.901C1240.76 391.855 1240.57 391.743 1240.41 391.579C1240.26 391.415 1240.16 391.205 1240.11 390.977C1240.07 390.749 1240.09 390.513 1240.18 390.298C1240.26 390.083 1240.4 389.9 1240.58 389.771C1240.76 389.642 1240.97 389.573 1241.19 389.573C1241.48 389.573 1241.76 389.697 1241.97 389.917C1242.17 390.137 1242.29 390.436 1242.29 390.748Z" fill="#68B7E7"/>
<path fill-rule="evenodd" clip-rule="evenodd" d="M1142.12 198.608C1142.12 198.84 1142.06 199.067 1141.94 199.261C1141.82 199.454 1141.65 199.604 1141.45 199.693C1141.25 199.782 1141.03 199.806 1140.81 199.76C1140.6 199.715 1140.4 199.603 1140.25 199.439C1140.1 199.274 1139.99 199.065 1139.95 198.837C1139.91 198.609 1139.93 198.373 1140.01 198.158C1140.1 197.943 1140.24 197.76 1140.42 197.631C1140.6 197.502 1140.81 197.433 1141.03 197.433C1141.17 197.433 1141.31 197.463 1141.45 197.522C1141.58 197.581 1141.7 197.668 1141.8 197.777C1141.9 197.886 1141.99 198.015 1142.04 198.158C1142.1 198.301 1142.12 198.453 1142.12 198.608Z" fill="#406FBB"/>
<path fill-rule="evenodd" clip-rule="evenodd" d="M1090.23 171.819C1090.23 172.051 1090.16 172.278 1090.04 172.472C1089.92 172.665 1089.75 172.815 1089.55 172.904C1089.35 172.993 1089.13 173.017 1088.92 172.971C1088.7 172.926 1088.51 172.814 1088.35 172.65C1088.2 172.485 1088.1 172.276 1088.05 172.048C1088.01 171.82 1088.03 171.584 1088.12 171.369C1088.2 171.154 1088.34 170.971 1088.52 170.842C1088.7 170.713 1088.91 170.644 1089.13 170.644C1089.42 170.644 1089.7 170.767 1089.91 170.988C1090.11 171.208 1090.23 171.507 1090.23 171.819Z" fill="#406FBB"/>
<path fill-rule="evenodd" clip-rule="evenodd" d="M1025.77 118.128C1025.77 118.36 1025.7 118.588 1025.58 118.781C1025.46 118.974 1025.29 119.125 1025.09 119.214C1024.89 119.303 1024.67 119.326 1024.45 119.281C1024.24 119.235 1024.05 119.123 1023.89 118.959C1023.74 118.795 1023.63 118.585 1023.59 118.357C1023.55 118.129 1023.57 117.893 1023.65 117.678C1023.74 117.464 1023.88 117.28 1024.06 117.151C1024.24 117.022 1024.45 116.953 1024.67 116.953C1024.81 116.953 1024.96 116.983 1025.09 117.042C1025.22 117.101 1025.34 117.188 1025.45 117.297C1025.55 117.406 1025.63 117.536 1025.68 117.678C1025.74 117.821 1025.77 117.974 1025.77 118.128Z" fill="#365CBB"/>
<path d="M958.293 31.4126C958.899 31.4126 959.391 30.8865 959.391 30.2375C959.391 29.5886 958.899 29.0625 958.293 29.0625C957.687 29.0625 957.195 29.5886 957.195 30.2375C957.195 30.8865 957.687 31.4126 958.293 31.4126Z" fill="#365CBB"/>
<path fill-rule="evenodd" clip-rule="evenodd" d="M1158.89 197.436C1158.89 197.669 1158.83 197.896 1158.71 198.089C1158.59 198.282 1158.41 198.433 1158.21 198.522C1158.01 198.61 1157.79 198.634 1157.58 198.588C1157.37 198.543 1157.17 198.431 1157.02 198.267C1156.86 198.102 1156.76 197.893 1156.72 197.665C1156.68 197.437 1156.7 197.201 1156.78 196.986C1156.86 196.771 1157 196.588 1157.18 196.459C1157.36 196.33 1157.58 196.261 1157.79 196.261C1157.94 196.261 1158.08 196.291 1158.21 196.35C1158.35 196.409 1158.47 196.496 1158.57 196.605C1158.67 196.714 1158.75 196.844 1158.81 196.986C1158.86 197.129 1158.89 197.282 1158.89 197.436Z" fill="#365CBB"/>
<path fill-rule="evenodd" clip-rule="evenodd" d="M947.05 470.783C947.05 471.016 946.986 471.243 946.865 471.436C946.744 471.63 946.573 471.78 946.372 471.869C946.172 471.958 945.951 471.981 945.738 471.936C945.525 471.891 945.329 471.779 945.176 471.614C945.022 471.45 944.918 471.241 944.876 471.013C944.833 470.785 944.855 470.549 944.938 470.334C945.021 470.119 945.162 469.935 945.342 469.806C945.523 469.677 945.735 469.608 945.952 469.608C946.096 469.608 946.239 469.639 946.372 469.698C946.506 469.757 946.626 469.843 946.728 469.953C946.83 470.062 946.911 470.191 946.966 470.334C947.022 470.476 947.05 470.629 947.05 470.783Z" fill="#90FFFF"/>
<path fill-rule="evenodd" clip-rule="evenodd" d="M1207.3 5.96315C1207.3 6.27483 1207.19 6.57375 1206.98 6.79416C1206.78 7.01457 1206.5 7.13842 1206.21 7.13848C1205.91 7.13843 1205.63 7.01459 1205.43 6.79418C1205.22 6.57378 1205.11 6.27486 1205.11 5.96315C1205.11 5.65148 1205.22 5.35259 1205.43 5.13223C1205.63 4.91186 1205.91 4.78807 1206.21 4.78809C1206.5 4.78809 1206.78 4.91189 1206.98 5.13226C1207.19 5.35262 1207.3 5.65151 1207.3 5.96315Z" fill="#406FBB"/>
<path fill-rule="evenodd" clip-rule="evenodd" d="M1197.84 161.787C1197.84 162.019 1197.78 162.247 1197.66 162.44C1197.54 162.633 1197.36 162.784 1197.16 162.873C1196.96 162.961 1196.74 162.985 1196.53 162.939C1196.32 162.894 1196.12 162.782 1195.97 162.618C1195.81 162.453 1195.71 162.244 1195.67 162.016C1195.63 161.788 1195.65 161.552 1195.73 161.337C1195.81 161.122 1195.95 160.939 1196.13 160.81C1196.31 160.681 1196.53 160.612 1196.74 160.612C1196.89 160.612 1197.03 160.642 1197.16 160.701C1197.3 160.76 1197.42 160.847 1197.52 160.956C1197.62 161.065 1197.7 161.194 1197.76 161.337C1197.81 161.48 1197.84 161.633 1197.84 161.787Z" fill="#406FBB"/>
<path fill-rule="evenodd" clip-rule="evenodd" d="M917.527 105.448C917.527 105.68 917.463 105.907 917.343 106.101C917.222 106.294 917.05 106.445 916.85 106.534C916.649 106.623 916.429 106.646 916.216 106.601C916.003 106.555 915.807 106.443 915.654 106.279C915.5 106.115 915.395 105.905 915.353 105.677C915.311 105.449 915.333 105.213 915.416 104.998C915.499 104.783 915.639 104.6 915.82 104.471C916 104.342 916.213 104.273 916.43 104.273C916.721 104.273 917 104.397 917.206 104.617C917.412 104.837 917.527 105.136 917.527 105.448Z" fill="#406FBB"/>
<path fill-rule="evenodd" clip-rule="evenodd" d="M975.49 166.928C975.49 167.161 975.426 167.388 975.305 167.581C975.184 167.774 975.013 167.925 974.812 168.014C974.612 168.103 974.391 168.126 974.178 168.081C973.965 168.035 973.77 167.923 973.616 167.759C973.463 167.595 973.358 167.385 973.316 167.157C973.274 166.929 973.295 166.693 973.378 166.478C973.462 166.264 973.602 166.08 973.783 165.951C973.963 165.822 974.175 165.753 974.393 165.753C974.537 165.753 974.679 165.783 974.813 165.843C974.946 165.902 975.067 165.988 975.169 166.097C975.271 166.206 975.351 166.336 975.407 166.479C975.462 166.621 975.49 166.774 975.49 166.928Z" fill="#406FBB"/>
<path fill-rule="evenodd" clip-rule="evenodd" d="M1076.47 485.357C1076.47 485.589 1076.41 485.817 1076.29 486.01C1076.17 486.203 1076 486.354 1075.8 486.443C1075.59 486.531 1075.37 486.555 1075.16 486.509C1074.95 486.464 1074.75 486.352 1074.6 486.188C1074.45 486.023 1074.34 485.814 1074.3 485.586C1074.26 485.358 1074.28 485.122 1074.36 484.907C1074.44 484.693 1074.58 484.509 1074.77 484.38C1074.95 484.251 1075.16 484.182 1075.37 484.182C1075.67 484.182 1075.95 484.306 1076.15 484.526C1076.36 484.746 1076.47 485.045 1076.47 485.357Z" fill="#406FBB"/>
<path fill-rule="evenodd" clip-rule="evenodd" d="M989.868 21.971C989.868 22.2034 989.804 22.4306 989.683 22.6239C989.563 22.8172 989.391 22.9678 989.191 23.0568C988.99 23.1458 988.77 23.1691 988.557 23.1237C988.344 23.0784 988.148 22.9665 987.994 22.8022C987.841 22.6378 987.736 22.4284 987.694 22.2005C987.652 21.9725 987.673 21.7362 987.756 21.5215C987.839 21.3067 987.98 21.1232 988.161 20.994C988.341 20.8649 988.553 20.7959 988.771 20.7959C989.062 20.7959 989.341 20.9197 989.547 21.14C989.753 21.3604 989.868 21.6593 989.868 21.971Z" fill="#406FBB"/>
<path fill-rule="evenodd" clip-rule="evenodd" d="M1203.16 321.545C1203.16 321.777 1203.09 322.005 1202.97 322.198C1202.85 322.391 1202.68 322.542 1202.48 322.631C1202.28 322.72 1202.06 322.743 1201.85 322.697C1201.63 322.652 1201.44 322.54 1201.28 322.376C1201.13 322.212 1201.03 322.002 1200.98 321.774C1200.94 321.546 1200.96 321.31 1201.05 321.095C1201.13 320.881 1201.27 320.697 1201.45 320.568C1201.63 320.439 1201.84 320.37 1202.06 320.37C1202.35 320.37 1202.63 320.494 1202.84 320.714C1203.04 320.934 1203.16 321.233 1203.16 321.545Z" fill="#406FBB"/>
<path fill-rule="evenodd" clip-rule="evenodd" d="M853.843 159.507C853.843 159.739 853.778 159.966 853.658 160.159C853.537 160.353 853.366 160.503 853.165 160.592C852.965 160.681 852.744 160.704 852.531 160.659C852.318 160.614 852.122 160.502 851.969 160.338C851.815 160.173 851.711 159.964 851.669 159.736C851.626 159.508 851.648 159.272 851.731 159.057C851.814 158.842 851.955 158.659 852.135 158.53C852.316 158.4 852.528 158.332 852.745 158.332C853.036 158.332 853.315 158.455 853.521 158.676C853.727 158.896 853.843 159.195 853.843 159.507Z" fill="#406FBB"/>
<path fill-rule="evenodd" clip-rule="evenodd" d="M1112.6 269.662C1112.6 269.894 1112.54 270.121 1112.42 270.314C1112.3 270.508 1112.13 270.658 1111.93 270.747C1111.73 270.836 1111.5 270.86 1111.29 270.814C1111.08 270.769 1110.88 270.657 1110.73 270.493C1110.58 270.328 1110.47 270.119 1110.43 269.891C1110.39 269.663 1110.41 269.427 1110.49 269.212C1110.57 268.997 1110.72 268.814 1110.9 268.684C1111.08 268.555 1111.29 268.486 1111.51 268.486C1111.8 268.487 1112.08 268.61 1112.28 268.831C1112.49 269.051 1112.6 269.35 1112.6 269.662Z" fill="#406FBB"/>
<path fill-rule="evenodd" clip-rule="evenodd" d="M1026.87 75.2724C1026.87 75.5049 1026.8 75.7321 1026.68 75.9254C1026.56 76.1186 1026.39 76.2693 1026.19 76.3582C1025.99 76.4472 1025.77 76.4705 1025.55 76.4251C1025.34 76.3798 1025.14 76.2679 1024.99 76.1035C1024.84 75.9392 1024.73 75.7298 1024.69 75.5018C1024.65 75.2738 1024.67 75.0375 1024.75 74.8228C1024.84 74.6081 1024.98 74.4245 1025.16 74.2954C1025.34 74.1663 1025.55 74.0974 1025.77 74.0974C1026.06 74.0975 1026.34 74.2213 1026.54 74.4416C1026.75 74.662 1026.87 74.9608 1026.87 75.2724Z" fill="#406FBB"/>
<path fill-rule="evenodd" clip-rule="evenodd" d="M1283.47 355.588C1283.47 355.821 1283.41 356.048 1283.28 356.241C1283.16 356.434 1282.99 356.585 1282.79 356.674C1282.59 356.763 1282.37 356.786 1282.16 356.741C1281.95 356.696 1281.75 356.584 1281.6 356.419C1281.44 356.255 1281.34 356.046 1281.3 355.818C1281.25 355.59 1281.27 355.353 1281.36 355.138C1281.44 354.924 1281.58 354.74 1281.76 354.611C1281.94 354.482 1282.16 354.413 1282.37 354.413C1282.66 354.413 1282.94 354.537 1283.15 354.757C1283.35 354.978 1283.47 355.277 1283.47 355.588Z" fill="#406FBB"/>
<path fill-rule="evenodd" clip-rule="evenodd" d="M1220.04 79.9876C1220.04 80.22 1219.98 80.4472 1219.86 80.6405C1219.74 80.8337 1219.57 80.9843 1219.37 81.0733C1219.16 81.1622 1218.94 81.1854 1218.73 81.1401C1218.52 81.0947 1218.32 80.9828 1218.17 80.8185C1218.02 80.6541 1217.91 80.4447 1217.87 80.2168C1217.83 79.9888 1217.85 79.7525 1217.93 79.5378C1218.01 79.323 1218.15 79.1395 1218.34 79.0104C1218.52 78.8812 1218.73 78.8123 1218.95 78.8123C1219.09 78.8123 1219.23 78.8426 1219.37 78.9017C1219.5 78.9608 1219.62 79.0474 1219.72 79.1565C1219.82 79.2656 1219.9 79.3952 1219.96 79.5378C1220.01 79.6804 1220.04 79.8332 1220.04 79.9876Z" fill="#68B7E7"/>
<path fill-rule="evenodd" clip-rule="evenodd" d="M1273.86 89.7517C1273.86 89.9841 1273.8 90.2113 1273.68 90.4045C1273.56 90.5978 1273.38 90.7484 1273.18 90.8373C1272.98 90.9262 1272.76 90.9495 1272.55 90.9041C1272.34 90.8588 1272.14 90.7469 1271.99 90.5825C1271.83 90.4182 1271.73 90.2088 1271.69 89.9809C1271.64 89.7529 1271.67 89.5166 1271.75 89.3019C1271.83 89.0872 1271.97 88.9037 1272.15 88.7745C1272.33 88.6454 1272.55 88.5764 1272.76 88.5764C1272.91 88.5764 1273.05 88.6068 1273.18 88.6659C1273.32 88.7249 1273.44 88.8115 1273.54 88.9206C1273.64 89.0298 1273.72 89.1593 1273.78 89.3019C1273.83 89.4445 1273.86 89.5974 1273.86 89.7517Z" fill="#406FBB"/>
<path fill-rule="evenodd" clip-rule="evenodd" d="M1147.49 394.362C1147.49 394.595 1147.43 394.822 1147.31 395.015C1147.19 395.208 1147.02 395.359 1146.82 395.448C1146.62 395.537 1146.4 395.56 1146.18 395.515C1145.97 395.469 1145.77 395.358 1145.62 395.193C1145.47 395.029 1145.36 394.82 1145.32 394.592C1145.28 394.364 1145.3 394.127 1145.38 393.913C1145.47 393.698 1145.61 393.514 1145.79 393.385C1145.97 393.256 1146.18 393.187 1146.4 393.187C1146.54 393.187 1146.68 393.218 1146.82 393.277C1146.95 393.336 1147.07 393.422 1147.17 393.531C1147.27 393.64 1147.36 393.77 1147.41 393.913C1147.47 394.055 1147.49 394.208 1147.49 394.362Z" fill="#406FBB"/>
<path fill-rule="evenodd" clip-rule="evenodd" d="M941.91 124.901C941.91 125.133 941.846 125.361 941.725 125.554C941.605 125.747 941.433 125.898 941.233 125.987C941.032 126.076 940.811 126.099 940.598 126.054C940.385 126.008 940.19 125.896 940.036 125.732C939.883 125.568 939.778 125.358 939.736 125.13C939.694 124.902 939.715 124.666 939.798 124.451C939.882 124.237 940.022 124.053 940.203 123.924C940.383 123.795 940.595 123.726 940.813 123.726C941.104 123.726 941.383 123.85 941.589 124.07C941.794 124.29 941.91 124.589 941.91 124.901Z" fill="#90FFFF"/>
<path d="M1043.3 140.259C1043.9 140.259 1044.4 139.733 1044.4 139.084C1044.4 138.435 1043.9 137.909 1043.3 137.909C1042.69 137.909 1042.2 138.435 1042.2 139.084C1042.2 139.733 1042.69 140.259 1043.3 140.259Z" fill="#90FFFF"/>
<path fill-rule="evenodd" clip-rule="evenodd" d="M848.184 79.9517C848.184 80.1841 848.12 80.4112 847.999 80.6044C847.879 80.7976 847.707 80.9482 847.507 81.0371C847.306 81.126 847.085 81.1492 846.873 81.1038C846.66 81.0585 846.464 80.9465 846.311 80.7822C846.157 80.6179 846.053 80.4085 846.01 80.1806C845.968 79.9526 845.99 79.7164 846.073 79.5017C846.156 79.287 846.297 79.1035 846.477 78.9744C846.658 78.8453 846.87 78.7764 847.087 78.7764C847.231 78.7764 847.374 78.8068 847.507 78.8658C847.64 78.9249 847.761 79.0115 847.863 79.1206C847.965 79.2298 848.046 79.3593 848.101 79.5019C848.156 79.6445 848.184 79.7973 848.184 79.9517Z" fill="#90FFFF"/>
<path fill-rule="evenodd" clip-rule="evenodd" d="M1110.2 309.748C1110.2 309.98 1110.14 310.207 1110.02 310.4C1109.9 310.594 1109.73 310.744 1109.53 310.833C1109.32 310.922 1109.1 310.945 1108.89 310.9C1108.68 310.855 1108.48 310.743 1108.33 310.578C1108.18 310.414 1108.07 310.205 1108.03 309.977C1107.99 309.749 1108.01 309.513 1108.09 309.298C1108.17 309.083 1108.32 308.9 1108.5 308.771C1108.68 308.641 1108.89 308.573 1109.11 308.573C1109.4 308.573 1109.68 308.696 1109.88 308.917C1110.09 309.137 1110.2 309.436 1110.2 309.748Z" fill="#B7FFFF"/>
<path fill-rule="evenodd" clip-rule="evenodd" d="M1064.78 33.9009C1064.78 34.1333 1064.72 34.3605 1064.6 34.5538C1064.48 34.747 1064.31 34.8976 1064.11 34.9866C1063.91 35.0755 1063.69 35.0988 1063.47 35.0534C1063.26 35.0081 1063.06 34.8962 1062.91 34.7318C1062.76 34.5675 1062.65 34.3581 1062.61 34.1301C1062.57 33.9022 1062.59 33.6659 1062.67 33.4511C1062.76 33.2364 1062.9 33.0528 1063.08 32.9237C1063.26 32.7946 1063.47 32.7256 1063.69 32.7256C1063.83 32.7256 1063.97 32.756 1064.11 32.815C1064.24 32.8741 1064.36 32.9607 1064.46 33.0698C1064.56 33.1789 1064.65 33.3085 1064.7 33.4511C1064.76 33.5937 1064.78 33.7466 1064.78 33.9009Z" fill="#90FFFF"/>
<path fill-rule="evenodd" clip-rule="evenodd" d="M1272.76 194.644C1272.76 194.876 1272.7 195.103 1272.58 195.296C1272.46 195.49 1272.29 195.64 1272.09 195.729C1271.89 195.818 1271.67 195.841 1271.45 195.796C1271.24 195.751 1271.04 195.639 1270.89 195.474C1270.74 195.31 1270.63 195.101 1270.59 194.873C1270.55 194.645 1270.57 194.409 1270.65 194.194C1270.74 193.979 1270.88 193.796 1271.06 193.667C1271.24 193.537 1271.45 193.469 1271.67 193.469C1271.96 193.469 1272.24 193.592 1272.44 193.813C1272.65 194.033 1272.76 194.332 1272.76 194.644Z" fill="#90FFFF"/>
<path fill-rule="evenodd" clip-rule="evenodd" d="M1050 313.608C1050 313.84 1049.94 314.067 1049.81 314.261C1049.69 314.454 1049.52 314.604 1049.32 314.693C1049.12 314.782 1048.9 314.806 1048.69 314.76C1048.48 314.715 1048.28 314.603 1048.13 314.439C1047.97 314.274 1047.87 314.065 1047.83 313.837C1047.78 313.609 1047.81 313.373 1047.89 313.158C1047.97 312.943 1048.11 312.76 1048.29 312.631C1048.47 312.502 1048.69 312.433 1048.9 312.433C1049.19 312.433 1049.47 312.556 1049.68 312.777C1049.88 312.997 1050 313.296 1050 313.608Z" fill="#90FFFF"/>
<path fill-rule="evenodd" clip-rule="evenodd" d="M898.499 323.859C898.499 324.091 898.435 324.318 898.314 324.511C898.193 324.705 898.022 324.855 897.821 324.944C897.621 325.033 897.4 325.056 897.187 325.011C896.974 324.966 896.779 324.854 896.625 324.689C896.472 324.525 896.367 324.316 896.325 324.088C896.282 323.86 896.304 323.624 896.387 323.409C896.47 323.194 896.611 323.011 896.791 322.881C896.972 322.752 897.184 322.683 897.401 322.683C897.545 322.683 897.688 322.714 897.821 322.773C897.955 322.832 898.076 322.918 898.178 323.028C898.28 323.137 898.36 323.266 898.416 323.409C898.471 323.551 898.499 323.704 898.499 323.859Z" fill="#90FFFF"/>
<path fill-rule="evenodd" clip-rule="evenodd" d="M1197.23 57.4827C1197.23 57.7151 1197.17 57.9423 1197.05 58.1356C1196.93 58.3289 1196.76 58.4795 1196.56 58.5685C1196.36 58.6575 1196.14 58.6808 1195.92 58.6354C1195.71 58.5901 1195.51 58.4781 1195.36 58.3138C1195.21 58.1494 1195.1 57.94 1195.06 57.712C1195.02 57.4841 1195.04 57.2478 1195.12 57.033C1195.21 56.8183 1195.35 56.6347 1195.53 56.5056C1195.71 56.3765 1195.92 56.3076 1196.14 56.3076C1196.43 56.3077 1196.71 56.4315 1196.91 56.6518C1197.12 56.8722 1197.23 57.171 1197.23 57.4827Z" fill="#90FFFF"/>
<path fill-rule="evenodd" clip-rule="evenodd" d="M1159.99 124.901C1159.99 125.133 1159.92 125.361 1159.8 125.554C1159.68 125.747 1159.51 125.898 1159.31 125.987C1159.11 126.076 1158.89 126.099 1158.68 126.054C1158.46 126.008 1158.27 125.897 1158.12 125.732C1157.96 125.568 1157.86 125.358 1157.82 125.131C1157.77 124.903 1157.79 124.666 1157.88 124.452C1157.96 124.237 1158.1 124.053 1158.28 123.924C1158.46 123.795 1158.67 123.726 1158.89 123.726C1159.04 123.726 1159.18 123.756 1159.31 123.815C1159.44 123.874 1159.57 123.961 1159.67 124.07C1159.77 124.179 1159.85 124.309 1159.91 124.451C1159.96 124.594 1159.99 124.747 1159.99 124.901Z" fill="#90FFFF"/>
<path fill-rule="evenodd" clip-rule="evenodd" d="M1046.58 125.276C1046.58 125.508 1046.51 125.735 1046.39 125.929C1046.27 126.122 1046.1 126.273 1045.9 126.361C1045.7 126.45 1045.48 126.474 1045.27 126.428C1045.05 126.383 1044.86 126.271 1044.7 126.107C1044.55 125.942 1044.45 125.733 1044.4 125.505C1044.36 125.277 1044.38 125.041 1044.47 124.826C1044.55 124.611 1044.69 124.428 1044.87 124.299C1045.05 124.169 1045.26 124.101 1045.48 124.101C1045.62 124.101 1045.77 124.131 1045.9 124.19C1046.03 124.249 1046.15 124.336 1046.26 124.445C1046.36 124.554 1046.44 124.683 1046.49 124.826C1046.55 124.969 1046.58 125.121 1046.58 125.276Z" fill="#90FFFF"/>
<path fill-rule="evenodd" clip-rule="evenodd" d="M1081.88 330.259C1081.88 330.491 1081.81 330.719 1081.69 330.912C1081.57 331.105 1081.4 331.256 1081.2 331.345C1081 331.434 1080.78 331.457 1080.57 331.412C1080.35 331.366 1080.16 331.254 1080 331.09C1079.85 330.926 1079.75 330.716 1079.7 330.488C1079.66 330.26 1079.68 330.024 1079.77 329.809C1079.85 329.595 1079.99 329.411 1080.17 329.282C1080.35 329.153 1080.56 329.084 1080.78 329.084C1081.07 329.084 1081.35 329.208 1081.56 329.428C1081.76 329.649 1081.88 329.947 1081.88 330.259Z" fill="#90FFFF"/>
<path fill-rule="evenodd" clip-rule="evenodd" d="M1051.11 228.787C1051.11 229.02 1051.05 229.247 1050.93 229.44C1050.81 229.634 1050.64 229.784 1050.43 229.873C1050.23 229.962 1050.01 229.985 1049.8 229.94C1049.59 229.895 1049.39 229.783 1049.24 229.619C1049.09 229.454 1048.98 229.245 1048.94 229.017C1048.9 228.789 1048.92 228.553 1049 228.338C1049.08 228.123 1049.22 227.94 1049.4 227.81C1049.59 227.681 1049.8 227.612 1050.01 227.612C1050.31 227.612 1050.58 227.736 1050.79 227.956C1051 228.177 1051.11 228.476 1051.11 228.787Z" fill="#68B7E7"/>
<path fill-rule="evenodd" clip-rule="evenodd" d="M982.009 180.678C982.009 180.91 981.945 181.138 981.824 181.331C981.703 181.524 981.532 181.675 981.331 181.764C981.131 181.853 980.91 181.876 980.697 181.831C980.484 181.785 980.288 181.674 980.135 181.509C979.981 181.345 979.877 181.135 979.835 180.907C979.792 180.679 979.814 180.443 979.897 180.228C979.98 180.014 980.121 179.83 980.301 179.701C980.482 179.572 980.694 179.503 980.911 179.503C981.202 179.503 981.482 179.627 981.687 179.847C981.893 180.068 982.009 180.366 982.009 180.678Z" fill="#406FBB"/>
<path fill-rule="evenodd" clip-rule="evenodd" d="M930.112 153.888C930.112 154.121 930.048 154.348 929.927 154.541C929.807 154.734 929.635 154.885 929.435 154.974C929.234 155.063 929.013 155.086 928.8 155.041C928.587 154.995 928.392 154.883 928.238 154.719C928.085 154.555 927.98 154.345 927.938 154.117C927.896 153.889 927.917 153.653 928.001 153.438C928.084 153.224 928.224 153.04 928.405 152.911C928.585 152.782 928.798 152.713 929.015 152.713C929.159 152.713 929.302 152.743 929.435 152.803C929.568 152.862 929.689 152.948 929.791 153.057C929.893 153.166 929.974 153.296 930.029 153.439C930.084 153.581 930.112 153.734 930.112 153.888Z" fill="#406FBB"/>
<path fill-rule="evenodd" clip-rule="evenodd" d="M865.653 100.193C865.653 100.426 865.589 100.653 865.469 100.846C865.348 101.04 865.176 101.19 864.976 101.279C864.775 101.368 864.555 101.392 864.342 101.346C864.129 101.301 863.933 101.189 863.78 101.025C863.626 100.86 863.522 100.651 863.479 100.423C863.437 100.195 863.458 99.9587 863.542 99.744C863.625 99.5292 863.765 99.3456 863.946 99.2164C864.126 99.0873 864.338 99.0183 864.556 99.0183C864.847 99.0183 865.126 99.1421 865.332 99.3625C865.538 99.5829 865.653 99.8817 865.653 100.193Z" fill="#365CBB"/>
<path fill-rule="evenodd" clip-rule="evenodd" d="M799.277 12.303C799.277 12.4573 799.249 12.6101 799.194 12.7527C799.139 12.8953 799.058 13.0249 798.956 13.134C798.854 13.2432 798.733 13.3297 798.6 13.3888C798.466 13.4479 798.324 13.4783 798.18 13.4783C798.035 13.4783 797.893 13.4479 797.76 13.3888C797.626 13.3297 797.505 13.2432 797.403 13.134C797.302 13.0249 797.221 12.8953 797.166 12.7527C797.11 12.6101 797.082 12.4573 797.082 12.303C797.082 11.9913 797.198 11.6925 797.403 11.4721C797.609 11.2517 797.889 11.1279 798.18 11.1279C798.471 11.1279 798.75 11.2517 798.956 11.4721C799.162 11.6925 799.277 11.9913 799.277 12.303Z" fill="#365CBB"/>
<path fill-rule="evenodd" clip-rule="evenodd" d="M817.758 277.347C817.758 277.579 817.694 277.806 817.573 277.999C817.452 278.193 817.281 278.343 817.08 278.432C816.88 278.521 816.659 278.545 816.446 278.499C816.233 278.454 816.038 278.342 815.884 278.178C815.731 278.013 815.626 277.804 815.584 277.576C815.541 277.348 815.563 277.112 815.646 276.897C815.729 276.682 815.87 276.499 816.05 276.37C816.231 276.24 816.443 276.172 816.66 276.172C816.951 276.172 817.23 276.295 817.436 276.516C817.642 276.736 817.758 277.035 817.758 277.347Z" fill="#365CBB"/>
<path fill-rule="evenodd" clip-rule="evenodd" d="M998.776 179.502C998.776 179.735 998.712 179.962 998.591 180.155C998.471 180.349 998.299 180.499 998.099 180.588C997.898 180.677 997.678 180.7 997.465 180.655C997.252 180.61 997.056 180.498 996.903 180.333C996.749 180.169 996.645 179.96 996.602 179.732C996.56 179.504 996.582 179.267 996.665 179.053C996.748 178.838 996.888 178.654 997.069 178.525C997.249 178.396 997.462 178.327 997.679 178.327C997.823 178.327 997.966 178.358 998.099 178.417C998.232 178.476 998.353 178.562 998.455 178.671C998.557 178.781 998.638 178.91 998.693 179.053C998.748 179.195 998.776 179.348 998.776 179.502Z" fill="#365CBB"/>
<path fill-rule="evenodd" clip-rule="evenodd" d="M757.412 87.5176C757.412 87.75 757.348 87.9773 757.227 88.1705C757.107 88.3638 756.935 88.5145 756.735 88.6034C756.534 88.6924 756.313 88.7157 756.1 88.6703C755.887 88.625 755.692 88.5131 755.538 88.3487C755.385 88.1843 755.28 87.9749 755.238 87.747C755.196 87.519 755.217 87.2827 755.3 87.0679C755.383 86.8532 755.524 86.6697 755.705 86.5405C755.885 86.4114 756.098 86.3425 756.315 86.3425C756.606 86.3426 756.885 86.4664 757.091 86.6868C757.297 86.9071 757.412 87.206 757.412 87.5176Z" fill="#406FBB"/>
<path fill-rule="evenodd" clip-rule="evenodd" d="M815.376 148.998C815.376 149.23 815.311 149.457 815.191 149.651C815.07 149.844 814.899 149.995 814.698 150.083C814.498 150.172 814.277 150.196 814.064 150.15C813.851 150.105 813.656 149.993 813.502 149.829C813.349 149.664 813.244 149.455 813.202 149.227C813.159 148.999 813.181 148.763 813.264 148.548C813.347 148.333 813.488 148.15 813.668 148.021C813.849 147.892 814.061 147.823 814.278 147.823C814.569 147.823 814.848 147.947 815.054 148.167C815.26 148.387 815.376 148.686 815.376 148.998Z" fill="#406FBB"/>
<path fill-rule="evenodd" clip-rule="evenodd" d="M829.753 4.0408C829.753 4.35245 829.637 4.65133 829.431 4.8717C829.226 5.09207 828.946 5.21587 828.655 5.21587C828.364 5.21588 828.085 5.09209 827.879 4.87173C827.673 4.65136 827.558 4.35247 827.558 4.0408C827.558 3.72909 827.673 3.43014 827.879 3.20973C828.085 2.98932 828.364 2.86549 828.655 2.86548C828.8 2.86549 828.942 2.89589 829.075 2.95496C829.209 3.01403 829.33 3.10061 829.431 3.20975C829.533 3.31889 829.614 3.44846 829.669 3.59105C829.725 3.73364 829.753 3.88647 829.753 4.0408Z" fill="#406FBB"/>
<path fill-rule="evenodd" clip-rule="evenodd" d="M823.711 313.506C823.711 313.739 823.647 313.966 823.526 314.159C823.405 314.352 823.234 314.503 823.033 314.592C822.833 314.681 822.612 314.704 822.399 314.659C822.186 314.613 821.991 314.501 821.837 314.337C821.684 314.173 821.579 313.963 821.537 313.735C821.494 313.508 821.516 313.271 821.599 313.057C821.682 312.842 821.823 312.658 822.003 312.529C822.184 312.4 822.396 312.331 822.613 312.331C822.904 312.331 823.184 312.455 823.389 312.675C823.595 312.896 823.711 313.195 823.711 313.506Z" fill="#406FBB"/>
<path fill-rule="evenodd" clip-rule="evenodd" d="M693.729 141.576C693.729 141.809 693.664 142.036 693.544 142.229C693.423 142.422 693.252 142.573 693.051 142.662C692.85 142.751 692.63 142.774 692.417 142.729C692.204 142.684 692.008 142.572 691.855 142.407C691.701 142.243 691.597 142.034 691.554 141.806C691.512 141.578 691.534 141.342 691.617 141.127C691.7 140.912 691.84 140.729 692.021 140.599C692.201 140.47 692.414 140.401 692.631 140.401C692.775 140.401 692.918 140.432 693.051 140.491C693.184 140.55 693.305 140.636 693.407 140.745C693.509 140.854 693.59 140.984 693.645 141.127C693.7 141.269 693.729 141.422 693.729 141.576Z" fill="#406FBB"/>
<path fill-rule="evenodd" clip-rule="evenodd" d="M866.75 57.3379C866.75 57.5704 866.686 57.7976 866.565 57.9909C866.444 58.1841 866.273 58.3348 866.072 58.4238C865.872 58.5127 865.651 58.536 865.438 58.4907C865.225 58.4453 865.03 58.3334 864.876 58.169C864.723 58.0047 864.618 57.7952 864.576 57.5673C864.533 57.3393 864.555 57.103 864.638 56.8882C864.721 56.6735 864.862 56.49 865.043 56.3608C865.223 56.2317 865.435 56.1628 865.653 56.1628C865.944 56.1628 866.223 56.2867 866.429 56.507C866.634 56.7274 866.75 57.0263 866.75 57.3379Z" fill="#406FBB"/>
<path fill-rule="evenodd" clip-rule="evenodd" d="M781.797 106.962C781.797 107.195 781.733 107.422 781.612 107.615C781.491 107.808 781.32 107.959 781.119 108.048C780.919 108.137 780.698 108.16 780.485 108.115C780.272 108.07 780.077 107.958 779.923 107.793C779.77 107.629 779.665 107.42 779.623 107.192C779.58 106.964 779.602 106.727 779.685 106.513C779.768 106.298 779.909 106.114 780.089 105.985C780.27 105.856 780.482 105.787 780.699 105.787C780.99 105.787 781.27 105.911 781.475 106.131C781.681 106.352 781.797 106.651 781.797 106.962Z" fill="#90FFFF"/>
<path fill-rule="evenodd" clip-rule="evenodd" d="M950.088 291.819C950.088 292.051 950.024 292.278 949.903 292.472C949.783 292.665 949.611 292.815 949.411 292.904C949.21 292.993 948.989 293.017 948.776 292.971C948.563 292.926 948.368 292.814 948.214 292.65C948.061 292.485 947.956 292.276 947.914 292.048C947.871 291.82 947.893 291.584 947.976 291.369C948.059 291.154 948.2 290.971 948.38 290.842C948.561 290.713 948.773 290.644 948.99 290.644C949.134 290.644 949.277 290.674 949.41 290.733C949.543 290.792 949.665 290.879 949.766 290.988C949.868 291.097 949.949 291.226 950.004 291.369C950.06 291.511 950.088 291.664 950.088 291.819Z" fill="#B7FFFF"/>
<path fill-rule="evenodd" clip-rule="evenodd" d="M889.885 295.674C889.885 295.907 889.821 296.134 889.7 296.327C889.579 296.52 889.408 296.671 889.207 296.76C889.007 296.849 888.786 296.872 888.573 296.827C888.36 296.782 888.165 296.67 888.011 296.505C887.858 296.341 887.753 296.132 887.711 295.904C887.668 295.676 887.69 295.44 887.773 295.225C887.856 295.01 887.997 294.827 888.177 294.697C888.358 294.568 888.57 294.499 888.787 294.499C889.078 294.499 889.357 294.623 889.563 294.843C889.769 295.064 889.885 295.363 889.885 295.674Z" fill="#90FFFF"/>
<path fill-rule="evenodd" clip-rule="evenodd" d="M738.384 305.924C738.384 306.156 738.32 306.383 738.199 306.577C738.078 306.77 737.907 306.921 737.706 307.01C737.506 307.099 737.285 307.122 737.072 307.077C736.859 307.031 736.664 306.919 736.51 306.755C736.357 306.591 736.252 306.381 736.21 306.153C736.167 305.925 736.189 305.689 736.272 305.474C736.355 305.26 736.496 305.076 736.676 304.947C736.857 304.818 737.069 304.749 737.286 304.749C737.43 304.749 737.573 304.779 737.706 304.838C737.839 304.897 737.96 304.984 738.062 305.093C738.164 305.202 738.245 305.332 738.3 305.474C738.356 305.617 738.384 305.769 738.384 305.924Z" fill="#90FFFF"/>
<path fill-rule="evenodd" clip-rule="evenodd" d="M1037.12 39.553C1037.12 39.7854 1037.06 40.0126 1036.94 40.2059C1036.81 40.3992 1036.64 40.5498 1036.44 40.6388C1036.24 40.7278 1036.02 40.7511 1035.81 40.7057C1035.6 40.6604 1035.4 40.5485 1035.25 40.3841C1035.09 40.2197 1034.99 40.0103 1034.95 39.7824C1034.9 39.5544 1034.93 39.3181 1035.01 39.1033C1035.09 38.8886 1035.23 38.7051 1035.41 38.5759C1035.59 38.4468 1035.81 38.3779 1036.02 38.3779C1036.17 38.3779 1036.31 38.4083 1036.44 38.4673C1036.58 38.5264 1036.7 38.6129 1036.8 38.722C1036.9 38.8312 1036.98 38.9607 1037.04 39.1033C1037.09 39.2458 1037.12 39.3986 1037.12 39.553Z" fill="#90FFFF"/>
<path fill-rule="evenodd" clip-rule="evenodd" d="M999.874 106.962C999.874 107.195 999.81 107.422 999.689 107.615C999.569 107.808 999.397 107.959 999.197 108.048C998.996 108.137 998.775 108.16 998.562 108.115C998.349 108.07 998.154 107.958 998 107.793C997.847 107.629 997.742 107.42 997.7 107.192C997.657 106.964 997.679 106.727 997.762 106.513C997.845 106.298 997.986 106.114 998.167 105.985C998.347 105.856 998.559 105.787 998.777 105.787C999.068 105.787 999.347 105.911 999.553 106.131C999.759 106.352 999.874 106.651 999.874 106.962Z" fill="#90FFFF"/>
<path fill-rule="evenodd" clip-rule="evenodd" d="M890.01 115.626C890.01 115.859 889.946 116.086 889.825 116.279C889.704 116.472 889.533 116.623 889.332 116.712C889.132 116.801 888.911 116.824 888.698 116.779C888.485 116.734 888.29 116.622 888.136 116.457C887.983 116.293 887.878 116.084 887.836 115.856C887.793 115.628 887.815 115.391 887.898 115.177C887.981 114.962 888.122 114.778 888.302 114.649C888.483 114.52 888.695 114.451 888.912 114.451C889.056 114.451 889.199 114.482 889.332 114.541C889.465 114.6 889.586 114.686 889.688 114.795C889.79 114.904 889.871 115.034 889.926 115.176C889.981 115.319 890.01 115.472 890.01 115.626Z" fill="#90FFFF"/>
<path fill-rule="evenodd" clip-rule="evenodd" d="M921.763 312.33C921.763 312.563 921.698 312.79 921.578 312.983C921.457 313.177 921.286 313.327 921.085 313.416C920.885 313.505 920.664 313.529 920.451 313.483C920.238 313.438 920.042 313.326 919.889 313.162C919.735 312.997 919.631 312.788 919.588 312.56C919.546 312.332 919.568 312.096 919.651 311.881C919.734 311.666 919.875 311.483 920.055 311.353C920.236 311.224 920.448 311.155 920.665 311.155C920.809 311.155 920.952 311.186 921.085 311.245C921.218 311.304 921.339 311.39 921.441 311.499C921.543 311.609 921.624 311.738 921.679 311.881C921.734 312.023 921.763 312.176 921.763 312.33Z" fill="#90FFFF"/>
<path fill-rule="evenodd" clip-rule="evenodd" d="M1197 306.702C1197 306.934 1196.93 307.162 1196.81 307.355C1196.69 307.548 1196.52 307.699 1196.32 307.788C1196.12 307.877 1195.9 307.9 1195.68 307.855C1195.47 307.809 1195.27 307.697 1195.12 307.533C1194.97 307.369 1194.86 307.159 1194.82 306.931C1194.78 306.703 1194.8 306.467 1194.88 306.252C1194.97 306.038 1195.11 305.854 1195.29 305.725C1195.47 305.596 1195.68 305.527 1195.9 305.527C1196.19 305.527 1196.47 305.651 1196.67 305.871C1196.88 306.091 1197 306.39 1197 306.702Z" fill="#90FFFF"/>
<path fill-rule="evenodd" clip-rule="evenodd" d="M1350.39 158.334C1350.39 158.567 1350.32 158.794 1350.2 158.987C1350.08 159.18 1349.91 159.331 1349.71 159.42C1349.51 159.509 1349.29 159.532 1349.08 159.487C1348.86 159.442 1348.67 159.33 1348.51 159.165C1348.36 159.001 1348.25 158.792 1348.21 158.564C1348.17 158.336 1348.19 158.1 1348.27 157.885C1348.36 157.67 1348.5 157.486 1348.68 157.357C1348.86 157.228 1349.07 157.159 1349.29 157.159C1349.58 157.159 1349.86 157.283 1350.07 157.503C1350.27 157.724 1350.39 158.023 1350.39 158.334Z" fill="#406FBB"/>
<path fill-rule="evenodd" clip-rule="evenodd" d="M1259.83 106.459C1259.83 106.692 1259.77 106.919 1259.65 107.112C1259.53 107.305 1259.36 107.456 1259.16 107.545C1258.95 107.634 1258.73 107.657 1258.52 107.612C1258.31 107.566 1258.11 107.454 1257.96 107.29C1257.81 107.126 1257.7 106.916 1257.66 106.688C1257.62 106.461 1257.64 106.224 1257.72 106.01C1257.8 105.795 1257.95 105.611 1258.13 105.482C1258.31 105.353 1258.52 105.284 1258.74 105.284C1259.03 105.284 1259.31 105.408 1259.51 105.628C1259.72 105.849 1259.83 106.148 1259.83 106.459Z" fill="#406FBB"/>
<path fill-rule="evenodd" clip-rule="evenodd" d="M1182.46 191.248C1182.46 191.481 1182.4 191.708 1182.28 191.901C1182.16 192.094 1181.99 192.245 1181.78 192.334C1181.58 192.423 1181.36 192.446 1181.15 192.401C1180.94 192.356 1180.74 192.244 1180.59 192.079C1180.43 191.915 1180.33 191.706 1180.29 191.478C1180.25 191.25 1180.27 191.014 1180.35 190.799C1180.43 190.584 1180.57 190.401 1180.75 190.271C1180.93 190.142 1181.15 190.073 1181.36 190.073C1181.66 190.073 1181.93 190.197 1182.14 190.417C1182.35 190.638 1182.46 190.937 1182.46 191.248Z" fill="#406FBB"/>
</svg>
